<svg width="50" height="50" viewBox="0 0 50 50" fill="none" xmlns="http://www.w3.org/2000/svg">
<rect width="50" height="50" rx="25" fill="#F7DF30"/>
<path d="M25.5 12C34.6127 12 42 17.7577 42 24.8621C42 31.965 34.6127 37.7227 25.5 37.7227C24.5926 37.7232 23.6861 37.6655 22.7861 37.5499L15.8593 42.0803C15.072 42.4967 14.7939 42.4511 15.1176 41.4313L16.5193 35.6516C11.9936 33.3573 9 29.3816 9 24.8621C9 17.7593 16.3873 12 25.5 12ZM34.7824 24.6657L37.0924 22.428C37.2257 22.2896 37.3001 22.1048 37.2998 21.9126C37.2996 21.7205 37.2248 21.5359 37.0912 21.3978C36.9576 21.2597 36.7755 21.1788 36.5835 21.1723C36.3914 21.1657 36.2043 21.2339 36.0616 21.3626L33.0319 24.2949V21.8717C33.0319 21.675 32.9537 21.4863 32.8146 21.3472C32.6755 21.2081 32.4869 21.13 32.2901 21.13C32.0934 21.13 31.9048 21.2081 31.7657 21.3472C31.6266 21.4863 31.5484 21.675 31.5484 21.8717V25.8899C31.5206 26.0045 31.5206 26.1241 31.5484 26.2387V28.5C31.5484 28.6967 31.6266 28.8854 31.7657 29.0245C31.9048 29.1636 32.0934 29.2417 32.2901 29.2417C32.4869 29.2417 32.6755 29.1636 32.8146 29.0245C32.9537 28.8854 33.0319 28.6967 33.0319 28.5V26.3581L33.7029 25.7091L35.9469 28.9039C36.0029 28.9836 36.0741 29.0516 36.1564 29.1038C36.2386 29.1561 36.3304 29.1916 36.4264 29.2084C36.5224 29.2251 36.6208 29.2228 36.716 29.2016C36.8111 29.1804 36.9011 29.1406 36.9809 29.0846C37.0606 29.0285 37.1286 28.9574 37.1808 28.8751C37.2331 28.7928 37.2686 28.701 37.2854 28.605C37.3021 28.509 37.2998 28.4106 37.2786 28.3155C37.2574 28.2203 37.2176 28.1303 37.1616 28.0506L34.7824 24.6641V24.6657ZM30.1341 27.6891H27.8399V21.8953C27.8311 21.7047 27.7492 21.5248 27.6112 21.393C27.4732 21.2612 27.2897 21.1877 27.0989 21.1877C26.9081 21.1877 26.7247 21.2612 26.5867 21.393C26.4487 21.5248 26.3668 21.7047 26.358 21.8953V28.4309C26.358 28.8394 26.688 29.1726 27.0981 29.1726H30.1341C30.3309 29.1726 30.5195 29.0944 30.6586 28.9553C30.7977 28.8162 30.8759 28.6276 30.8759 28.4309C30.8759 28.2341 30.7977 28.0455 30.6586 27.9064C30.5195 27.7673 30.3309 27.6891 30.1341 27.6891ZM20.9303 25.9731L22.024 23.2907L23.0266 25.9731H20.9303ZM24.895 26.74L24.8981 26.7149C24.8978 26.528 24.8264 26.3483 24.6986 26.212L23.0549 21.812C22.986 21.6023 22.8547 21.4187 22.6786 21.2856C22.5026 21.1525 22.2901 21.0763 22.0696 21.0671C21.8474 21.0662 21.6303 21.1329 21.447 21.2583C21.2637 21.3838 21.1229 21.5621 21.0434 21.7696L18.4333 28.1731C18.3964 28.2633 18.3777 28.3599 18.3782 28.4573C18.3787 28.5547 18.3984 28.6511 18.4361 28.7409C18.4738 28.8307 18.5288 28.9122 18.5981 28.9807C18.6673 29.0493 18.7493 29.1035 18.8395 29.1404C18.9297 29.1772 19.0262 29.1959 19.1236 29.1954C19.2211 29.1949 19.3174 29.1753 19.4072 29.1376C19.4971 29.0998 19.5786 29.0448 19.6471 28.9756C19.7156 28.9064 19.7699 28.8243 19.8067 28.7341L20.3253 27.4566H23.5781L24.048 28.7137C24.0799 28.8077 24.1304 28.8943 24.1964 28.9684C24.2625 29.0425 24.3427 29.1026 24.4324 29.1451C24.522 29.1877 24.6193 29.2118 24.7185 29.216C24.8177 29.2203 24.9167 29.2046 25.0096 29.1699C25.1026 29.1352 25.1877 29.0821 25.2598 29.0139C25.3319 28.9458 25.3896 28.8638 25.4295 28.7729C25.4694 28.682 25.4906 28.584 25.4919 28.4848C25.4932 28.3856 25.4746 28.2871 25.4371 28.1951L24.895 26.74ZM19.6747 21.9031C19.6747 21.7067 19.5968 21.5183 19.458 21.3792C19.3193 21.2402 19.131 21.1618 18.9346 21.1614H13.8353C13.6386 21.1614 13.4499 21.2396 13.3108 21.3787C13.1717 21.5178 13.0936 21.7064 13.0936 21.9031C13.0936 22.0999 13.1717 22.2885 13.3108 22.4276C13.4499 22.5667 13.6386 22.6449 13.8353 22.6449H15.6581V28.5157C15.6581 28.7124 15.7363 28.9011 15.8754 29.0402C16.0145 29.1793 16.2031 29.2574 16.3999 29.2574C16.5966 29.2574 16.7852 29.1793 16.9243 29.0402C17.0634 28.9011 17.1416 28.7124 17.1416 28.5157V22.6449H18.933C19.1297 22.6449 19.3184 22.5667 19.4575 22.4276C19.5966 22.2885 19.6747 22.0999 19.6747 21.9031Z" fill="black"/>
</svg>
