<svg width="100" height="100" viewBox="0 0 100 100" fill="none" xmlns="http://www.w3.org/2000/svg">
<path d="M67.1138 28.2389L65.236 22.5889C65.1503 22.3906 65.0245 22.2122 64.8666 22.0649C64.7087 21.9176 64.522 21.8045 64.3182 21.7327C64.1145 21.661 63.8982 21.6322 63.6828 21.648C63.4674 21.6639 63.2576 21.7242 63.0665 21.825C60.5165 23.1778 54.8888 25.4861 52.8332 26.2C56.7749 27.6028 62.5527 30.375 65.3638 30.0778C66.4304 29.9667 67.5499 29.2222 67.1138 28.2389V28.2389ZM95.4749 96.5C94.3665 97.125 77.3943 101.2 43.7499 71.7611C33.5638 62.8472 3.33322 35.775 3.72488 34.8528C3.72488 34.8528 2.81099 35.8528 2.05266 36.8972C1.50544 37.65 1.16655 38.45 1.29155 39.2528C2.15266 44.7167 9.93599 49.8611 20.6304 58.0889L22.1554 59.2611L23.1638 60.0361C24.7971 61.2917 29.5971 65.0778 35.1888 69.4889C42.836 75.5194 58.1999 87.5166 58.6471 87.85C64.536 92.2222 71.5221 95.675 79.9443 98.05C90.6054 101.053 95.4749 96.5 95.4749 96.5Z" fill="#8899A6"/>
<path d="M95.4754 96.4999C95.4754 96.4999 96.8004 95.8916 98.1699 93.9499C99.5393 92.0082 100.364 88.6055 98.2949 84.9277C96.2254 81.2527 88.6949 70.7027 86.2254 66.3971C85.0227 64.2999 85.4004 62.3777 83.1004 58.5221C83.1004 58.5221 74.3115 43.1805 72.3671 39.8471C68.2088 32.7166 70.0338 29.0082 67.2643 26.8805C65.4171 25.461 46.9699 27.3416 41.356 23.0221C37.4754 20.0388 37.4171 10.7221 35.7921 7.67213C34.4977 5.24157 30.181 6.35268 27.2171 7.97768C24.2532 9.60268 16.181 18.5027 14.231 21.0388C12.281 23.5749 9.78377 26.3416 9.5671 29.1721L9.34766 31.9999C9.34766 31.9999 53.406 74.0832 65.9449 82.5721C87.3254 97.0471 95.4754 96.4999 95.4754 96.4999V96.4999Z" fill="#F89500"/>
<path d="M68.7225 29.0666C68.4364 28.1943 68.0308 27.4693 67.2641 26.8777C65.4169 25.4582 46.9697 27.3416 41.3558 23.0193C37.4752 20.036 37.4169 10.7166 35.7919 7.66935C35.2864 6.72212 34.3141 6.32212 33.1475 6.2749C35.0641 10.1638 34.8725 21.7582 39.5697 25.3693C45.2308 29.7277 61.8364 28.5166 68.7225 29.0666Z" fill="#222222"/>
<path d="M36.847 49.6472C38.2497 45.5583 39.7469 35.9944 37.0525 30.3083C34.5275 24.9833 24.7164 13.7666 22.8525 11.6416C19.4081 14.711 14.8053 20.0805 13.4164 21.886C11.5831 24.2694 9.37473 26.9472 9.26639 29.6666C9.22751 30.6444 9.50806 31.0833 9.50806 31.0833C9.50806 31.0833 36.7914 49.8083 36.847 49.6472V49.6472Z" fill="#222222"/>
<path d="M64.1866 39.6001C63.6419 39.6032 63.1133 39.4152 62.6929 39.0688C62.2725 38.7225 61.9869 38.2396 61.8858 37.7044C61.7847 37.1691 61.8745 36.6154 62.1396 36.1395C62.4047 35.6637 62.8283 35.2958 63.3366 35.1001L68.4005 33.114C68.9682 32.9227 69.5877 32.9571 70.1307 33.2101C70.6737 33.4631 71.0986 33.9152 71.3174 34.4728C71.5363 35.0304 71.5322 35.6508 71.3062 36.2056C71.0802 36.7603 70.6495 37.2069 70.1033 37.4528L65.0394 39.439C64.7675 39.545 64.4784 39.5996 64.1866 39.6001ZM67.9283 48.1084C67.4138 48.1108 66.913 47.9428 66.5042 47.6305C66.0954 47.3182 65.8015 46.8793 65.6685 46.3823C65.5356 45.8853 65.571 45.3583 65.7692 44.8836C65.9675 44.4089 66.3174 44.0132 66.7644 43.7584L71.7449 40.8945C72.279 40.6089 72.9034 40.5425 73.4856 40.7093C74.0679 40.8761 74.5623 41.263 74.8642 41.7881C75.1661 42.3131 75.2517 42.9351 75.1029 43.5222C74.9542 44.1093 74.5827 44.6155 74.0672 44.9334L69.0866 47.7973C68.7346 48.0011 68.335 48.1084 67.9283 48.1084ZM72.9866 55.7528C72.4964 55.7544 72.0182 55.6012 71.6201 55.315C71.2221 55.0288 70.9246 54.6242 70.7701 54.159C70.6155 53.6938 70.6118 53.1916 70.7594 52.7241C70.907 52.2567 71.1984 51.8477 71.5922 51.5556L75.7977 48.4195C76.295 48.0918 76.8988 47.9667 77.4854 48.0698C78.072 48.1728 78.5969 48.4963 78.9527 48.9739C79.3085 49.4515 79.4682 50.0471 79.3991 50.6386C79.33 51.2302 79.0373 51.7729 78.581 52.1556L74.3755 55.2889C73.9754 55.5908 73.4877 55.7536 72.9866 55.7528V55.7528ZM78.3894 62.8945C77.9094 62.8931 77.4416 62.7437 77.0497 62.4667C76.6578 62.1897 76.3608 61.7986 76.1992 61.3467C76.0376 60.8948 76.0193 60.4041 76.1468 59.9414C76.2743 59.4787 76.5414 59.0666 76.9116 58.7612L80.1199 56.1278C80.6009 55.7686 81.2017 55.6086 81.7976 55.681C82.3935 55.7534 82.9386 56.0527 83.3195 56.5166C83.7004 56.9805 83.8879 57.5734 83.843 58.1719C83.7981 58.7705 83.5242 59.3288 83.0783 59.7306L79.8699 62.364C79.4525 62.7064 78.9293 62.8939 78.3894 62.8945V62.8945ZM8.88938 29.889C8.88938 29.889 10.7644 31.589 12.8477 31.9056C14.931 32.2223 18.6227 34.5445 21.1616 36.4973C23.7005 38.4501 33.381 45.6417 39.3116 51.6195C45.2422 57.5973 54.5755 69.8973 58.2033 73.4612C61.831 77.0223 67.6838 82.3306 72.6866 85.5362C77.6894 88.7417 82.2838 91.4556 85.231 92.9973C89.031 94.9862 92.5421 96.1751 95.4755 96.5001C94.4533 97.1001 89.0505 99.1278 79.6699 95.9306C70.7033 92.8723 64.8588 89.5584 60.0283 85.9695C55.1977 82.3806 28.8949 61.5028 24.5866 58.189C20.2783 54.8751 7.39771 45.0556 5.36438 42.114C2.47549 37.9362 2.61438 36.1084 3.17549 35.3806C4.54215 33.6001 7.42827 28.764 8.88938 29.889V29.889Z" fill="#CCD6DD"/>
<path d="M98.2948 84.9277C96.2253 81.2527 88.6948 70.7027 86.2253 66.3971C85.742 65.5527 85.5114 64.7333 85.2614 63.811C85.0087 63.9055 84.7364 63.961 84.5142 64.1138C81.3087 66.3138 81.3253 72.961 86.1003 79.911C89.9281 85.4833 96.0725 89.7777 99.5225 89.8444C99.5948 88.3499 99.2781 86.6721 98.2948 84.9277Z" fill="#222222"/>
</svg>
