<svg width="176" height="28" viewBox="0 0 176 28" fill="none" xmlns="http://www.w3.org/2000/svg">
<path d="M8.10786 27.8247C3.63717 27.8247 0 24.0974 0 19.5161C0 14.9347 3.63717 11.2075 8.10786 11.2075H8.93506V16.6236H8.10786C6.54817 16.6236 5.28526 17.9243 5.28526 19.5161C5.28526 21.1144 6.55448 22.415 8.10786 22.415C9.66755 22.415 10.9305 21.1144 10.9305 19.5161V18.2737V8.30857C10.9305 3.72721 14.5676 0 19.0383 0C23.509 0 27.1462 3.72721 27.1462 8.30857C27.1462 12.8899 23.509 16.6171 19.0383 16.6171H18.2111V11.201H19.0383C20.598 11.201 21.8609 9.9004 21.8609 8.30857C21.8609 6.71027 20.5917 5.4161 19.0383 5.4161C17.4786 5.4161 16.2157 6.71674 16.2157 8.30857V9.55097V19.5161C16.2157 24.0974 12.5785 27.8247 8.10786 27.8247Z" fill="#9DE3B2"/>
<path d="M51.6229 14.3735C51.6229 14.7782 51.5647 15.6794 50.9637 16.599C49.8972 18.2176 47.8031 18.8429 45.9222 18.8429C45.4762 18.8429 44.3516 18.8062 43.1494 18.3463C40.5124 17.3164 39.8143 15.0173 39.8143 12.5711C39.8143 11.1364 40.0276 9.84895 40.7451 8.57986C40.9196 8.28558 41.3462 7.58666 42.1024 6.97971C42.8198 6.37275 44.0026 5.63705 46.2519 5.65544C47.5122 5.65544 48.695 5.87615 49.7227 6.59346C49.8584 6.70382 50.2462 6.97971 50.5759 7.42113C50.8473 7.77059 51.0218 8.10166 51.2933 8.92932L47.5122 9.46271C47.4734 9.22361 47.454 9.09486 47.3377 8.87415C46.9887 8.19362 46.2131 8.13844 45.961 8.13844C45.5732 8.13844 44.6813 8.28558 44.0802 9.15003C43.576 9.84895 43.5372 10.6766 43.4985 11.4859C43.5954 11.3755 43.7893 11.118 44.0995 10.9157C44.4874 10.6398 45.5926 10.1616 46.9499 10.1616C47.2407 10.1616 48.0745 10.1984 48.9083 10.5111C50.6146 11.1548 51.6229 12.6262 51.6229 14.3735ZM47.8031 14.4655C47.8031 14.3 47.7837 13.9137 47.5898 13.5275C47.1632 12.6446 46.2131 12.5711 45.864 12.5527C45.7283 12.5527 45.3987 12.5711 45.0303 12.7182C43.9638 13.1228 43.8475 14.1344 43.8475 14.4839C43.8669 15.5874 44.6619 16.3967 45.8253 16.3967C46.31 16.3967 46.6397 16.268 46.7948 16.176C47.7255 15.7346 47.8031 14.7966 47.8031 14.4655ZM64.1489 14.3735C64.1489 14.7782 64.0908 15.6794 63.4897 16.599C62.4232 18.2176 60.3291 18.8429 58.4482 18.8429C58.0023 18.8429 56.8776 18.8062 55.6755 18.3463C53.0384 17.3164 52.3404 15.0173 52.3404 12.5711C52.3404 11.1364 52.5536 9.84895 53.2711 8.57986C53.4456 8.28558 53.8722 7.58666 54.6284 6.97971C55.3458 6.37275 56.5286 5.63705 58.7779 5.65544C60.0382 5.65544 61.221 5.87615 62.2487 6.59346C62.3844 6.70382 62.7722 6.97971 63.1019 7.42113C63.3733 7.77059 63.5478 8.10166 63.8193 8.92932L60.0382 9.46271C59.9994 9.22361 59.9801 9.09486 59.8637 8.87415C59.5147 8.19362 58.7391 8.13844 58.487 8.13844C58.0992 8.13844 57.2073 8.28558 56.6062 9.15003C56.102 9.84895 56.0633 10.6766 56.0245 11.4859C56.1214 11.3755 56.3153 11.118 56.6256 10.9157C57.0134 10.6398 58.1186 10.1616 59.4759 10.1616C59.7668 10.1616 60.6005 10.1984 61.4343 10.5111C63.1406 11.1548 64.1489 12.6262 64.1489 14.3735ZM60.3291 14.4655C60.3291 14.3 60.3097 13.9137 60.1158 13.5275C59.6892 12.6446 58.7391 12.5711 58.3901 12.5527C58.2543 12.5527 57.9247 12.5711 57.5563 12.7182C56.4898 13.1228 56.3735 14.1344 56.3735 14.4839C56.3929 15.5874 57.1879 16.3967 58.3513 16.3967C58.836 16.3967 59.1657 16.268 59.3208 16.176C60.2515 15.7346 60.3291 14.7966 60.3291 14.4655ZM81.4643 16.0105C81.1929 16.5255 80.999 16.8198 80.8244 17.0221C80.2233 17.7578 78.7885 18.9165 76.2872 18.9165C75.1431 18.9165 74.4451 18.6958 73.9991 18.5119C71.1294 17.3715 70.9355 14.5942 70.9355 13.7298C70.9355 13.4171 70.9743 12.6446 71.2651 11.817C72.3703 8.72701 75.5309 8.59826 76.5392 8.59826C78.3037 8.59826 79.3508 9.11325 79.9713 9.51789C80.1264 9.62824 80.5724 9.94092 80.9408 10.3639C81.1541 10.6214 81.2704 10.8054 81.4449 11.0813L78.4201 12.6998C78.3425 12.4607 78.2649 12.2768 78.2262 12.2032C78.0904 11.9273 77.6639 11.2652 76.6943 11.2652C76.2678 11.2652 75.9769 11.4123 75.8412 11.5043C74.8717 12.1296 74.8911 13.693 74.8911 13.8402C74.8911 13.9505 74.8717 14.9253 75.3564 15.4955C75.434 15.6058 75.5891 15.753 75.9187 15.8817C76.0351 15.9185 76.2872 16.0289 76.6362 16.0289C77.9353 16.0105 78.3231 14.631 78.4007 14.4103L81.4643 16.0105ZM93.4668 18.5487H89.4724V13.1044C89.4724 12.8286 89.453 12.7734 89.4143 12.6078C89.3367 12.24 89.0265 11.7434 88.0376 11.7434C87.7273 11.7434 86.8548 11.7802 86.6221 12.6262C86.5639 12.8102 86.5639 13.0125 86.5639 13.178V18.5487H82.5696V5.56348H86.5445V9.9777C86.7578 9.72021 86.8548 9.62824 86.9905 9.49949C87.3783 9.15004 88.2896 8.61665 89.7439 8.61665C90.7134 8.61665 91.8186 8.89254 92.5361 9.57306C92.7881 9.81217 93.1953 10.2904 93.3505 11.0997C93.4474 11.5595 93.4668 11.8721 93.4668 12.332V18.5487ZM105.547 18.5487H101.611V17.813C101.456 17.9233 101.262 18.0705 100.874 18.2544C100.447 18.4567 99.5359 18.7694 98.2756 18.7694C98.0235 18.7694 97.3448 18.7694 96.6662 18.5303C95.367 18.0521 94.669 16.9853 94.669 15.6978C94.669 15.1828 94.7853 14.0425 96.0457 13.2332C96.8795 12.6998 97.9459 12.5711 98.9154 12.4423C99.4777 12.3687 100.079 12.2952 100.641 12.1848C100.893 12.1296 101.165 12.0745 101.417 12.0009C101.417 11.9641 101.417 11.7066 101.359 11.5595C101.242 11.1732 100.951 10.8973 100.059 10.8973C99.7686 10.8973 99.5747 10.9341 99.4777 10.9525C98.8573 11.0997 98.7991 11.5963 98.7409 11.7986L94.9986 11.8905C95.0374 11.6882 95.0956 11.5043 95.1344 11.3204C95.2313 10.9525 95.4446 10.2904 96.2396 9.70181C97.0346 9.11325 98.2562 8.70861 100.428 8.70861C101.998 8.70861 104.131 8.94772 104.907 10.4927C105.12 10.9157 105.198 11.302 105.198 12.1848V17.3715C105.198 18.0705 105.295 18.2176 105.547 18.5487ZM101.397 14.116C100.893 14.2816 100.389 14.4287 99.8849 14.5575C99.4584 14.6494 98.8573 14.7782 98.547 15.146C98.5082 15.2012 98.3725 15.3667 98.3725 15.5874C98.3725 15.8817 98.6246 16.3232 99.3614 16.3232C99.7104 16.3232 100.021 16.2128 100.331 16.0657C101.456 15.4955 101.397 14.5575 101.397 14.116ZM110.821 18.5487H106.807V5.56348H110.821V18.5487ZM116.483 18.5487H112.469V5.56348H116.483V18.5487ZM128.737 14.4655H121.738C121.738 14.4655 121.738 14.9069 121.835 15.2012C121.97 15.5691 122.358 16.268 123.425 16.2496C124.045 16.2496 124.375 16.0473 124.569 15.8817C124.976 15.5691 125.17 15.146 125.247 15.0173L128.524 16.3232C128.427 16.4703 128.311 16.6726 128.039 16.9669C127.341 17.7394 126.546 18.1624 126.197 18.3279C125.713 18.5487 124.666 18.9349 123.231 18.9349C122.397 18.9349 121.602 18.8245 120.846 18.5303C118.771 17.721 117.666 15.8082 117.666 13.7298C117.666 11.7618 118.616 10.5479 119.197 10.0145C120.632 8.70861 122.63 8.61665 123.192 8.61665C123.871 8.61665 125.926 8.70861 127.38 10.1984C127.865 10.695 128.233 11.3204 128.447 11.9641C128.718 12.7918 128.737 13.601 128.737 14.4655ZM124.685 12.4607C124.666 12.3503 124.666 12.1664 124.588 11.9273C124.316 11.1364 123.58 11.0261 123.269 11.0261C122.959 11.0445 122.765 11.118 122.649 11.1732C121.912 11.4859 121.815 12.2584 121.776 12.4607H124.685ZM140.624 18.5487H136.629V13.3436C136.629 13.1228 136.629 12.9205 136.571 12.6998C136.474 12.3687 136.183 11.9089 135.272 11.9089C133.798 11.9089 133.818 13.0677 133.818 13.4723V18.5487H129.843V9.02129H133.604V10.2904C133.856 9.94092 133.895 9.90413 134.089 9.72021C134.826 9.02129 135.892 8.76379 136.92 8.76379C137.288 8.76379 138.529 8.78218 139.48 9.55467C140.003 9.95931 140.333 10.5847 140.488 11.21C140.565 11.5227 140.624 11.8537 140.624 12.5343V18.5487ZM152.859 18.0153C152.839 18.1992 152.839 18.3647 152.82 18.5487C152.801 18.9717 152.723 20.1672 151.657 21.0133C150.513 21.9329 148.554 22.1352 147.139 22.1352C146.596 22.1352 146.053 22.1168 145.51 22.0616C144.405 21.9329 143.125 21.6754 142.446 20.7006C142.02 20.0752 141.981 19.4315 141.962 18.6774H145.587C145.587 18.7878 145.549 19.2844 145.898 19.5786C146.092 19.7442 146.538 19.9097 147.158 19.9097C147.255 19.9097 148.069 19.8913 148.535 19.5603C149.078 19.174 149.02 18.4199 149.02 18.2912C149.02 17.8865 149.039 17.5003 149.039 17.114C148.864 17.3715 148.845 17.4083 148.69 17.5187C148.089 17.9785 147.177 18.0888 146.441 18.0888C145.374 18.0888 144.463 17.9049 143.61 17.2796C142.873 16.7462 141.923 15.6242 141.923 13.5091C141.923 13.0493 141.961 11.2284 143.202 9.9777C144.075 9.09486 145.413 8.76379 146.654 8.76379C146.945 8.76379 148.069 8.76379 148.903 9.38914C149.078 9.51789 149.175 9.60985 149.427 9.92252L149.407 9.02129H152.859V18.0153ZM148.942 13.4539C148.942 12.7734 148.864 11.8905 148.108 11.5411C147.992 11.4859 147.74 11.3755 147.391 11.3939C147.139 11.3939 146.887 11.4491 146.673 11.5411C146.111 11.7986 145.723 12.4055 145.723 13.601C145.723 14.4103 145.917 14.9069 146.169 15.1644C146.305 15.3116 146.46 15.4035 146.654 15.4771C146.731 15.5139 147.003 15.5874 147.294 15.5874C147.449 15.5874 147.72 15.5874 148.05 15.4403C148.845 15.1092 148.942 14.1712 148.942 13.4539ZM165.094 14.4655H158.094C158.094 14.4655 158.094 14.9069 158.191 15.2012C158.327 15.5691 158.715 16.268 159.781 16.2496C160.402 16.2496 160.731 16.0473 160.925 15.8817C161.332 15.5691 161.526 15.146 161.604 15.0173L164.881 16.3232C164.784 16.4703 164.667 16.6726 164.396 16.9669C163.698 17.7394 162.903 18.1624 162.554 18.3279C162.069 18.5487 161.022 18.9349 159.587 18.9349C158.753 18.9349 157.958 18.8245 157.202 18.5303C155.127 17.721 154.022 15.8082 154.022 13.7298C154.022 11.7618 154.972 10.5479 155.554 10.0145C156.989 8.70861 158.986 8.61665 159.548 8.61665C160.227 8.61665 162.282 8.70861 163.737 10.1984C164.221 10.695 164.59 11.3204 164.803 11.9641C165.075 12.7918 165.094 13.601 165.094 14.4655ZM161.041 12.4607C161.022 12.3503 161.022 12.1664 160.944 11.9273C160.673 11.1364 159.936 11.0261 159.626 11.0261C159.316 11.0445 159.122 11.118 159.005 11.1732C158.269 11.4859 158.172 12.2584 158.133 12.4607H161.041ZM175.545 15.3667C175.545 15.9185 175.429 16.4151 175.138 16.9117C173.994 18.8797 171.318 18.9165 170.775 18.9165C169.282 18.9165 167.75 18.5119 166.49 17.7578C166.102 17.5371 165.753 17.2612 165.385 17.0037L167.634 15.0725C167.828 15.238 168.002 15.3851 168.196 15.5323C168.526 15.753 169.515 16.3415 170.736 16.3415C170.833 16.3415 171.144 16.3415 171.396 16.2312C171.687 16.1024 171.784 15.8633 171.784 15.7346C171.784 15.6242 171.725 15.5323 171.706 15.5139C171.454 15.146 171.008 15.1828 170.252 15.0541C170.019 15.0173 169.069 14.8334 168.274 14.5759C167.343 14.2816 166.626 13.9321 166.18 13.0309C166.005 12.663 165.908 12.2952 165.908 11.8905C165.908 11.0629 166.316 10.4375 166.49 10.1984C167.072 9.42592 168.216 8.63504 170.465 8.63504C171.667 8.63504 173.199 8.87415 174.285 9.40753C174.653 9.59146 174.925 9.77538 175.254 10.0145L173.102 11.8721C172.811 11.6882 171.745 10.9525 170.523 10.9525C170.446 10.9525 170.174 10.9525 169.961 11.0445C169.728 11.1548 169.67 11.3571 169.67 11.4491C169.67 11.6882 169.883 11.7986 169.941 11.817C170.116 11.9089 170.504 11.9825 170.989 12.0929C172.462 12.4423 173.315 12.5711 173.955 12.8837C174.459 13.1228 175.545 13.8585 175.545 15.3667Z" fill="#9DE3B2"/>
</svg>
