<svg width="417" height="417" viewBox="0 0 417 417" fill="none" xmlns="http://www.w3.org/2000/svg">
<path fill-rule="evenodd" clip-rule="evenodd" d="M208.333 0C93.2708 0 0 93.2708 0 208.333C0 323.396 93.2708 416.667 208.333 416.667C323.396 416.667 416.667 323.396 416.667 208.333C416.667 93.2708 323.396 0 208.333 0ZM135.417 135.417C135.417 125.841 137.303 116.359 140.967 107.513C144.632 98.666 150.003 90.6277 156.773 83.8568C163.544 77.0859 171.583 71.7149 180.429 68.0505C189.276 64.3861 198.758 62.5 208.333 62.5C217.909 62.5 227.391 64.3861 236.237 68.0505C245.084 71.7149 253.122 77.0859 259.893 83.8568C266.664 90.6277 272.035 98.666 275.7 107.513C279.364 116.359 281.25 125.841 281.25 135.417C281.25 154.755 273.568 173.302 259.893 186.977C246.219 200.651 227.672 208.333 208.333 208.333C188.995 208.333 170.448 200.651 156.773 186.977C143.099 173.302 135.417 154.755 135.417 135.417ZM68.2917 298.75C102.646 270.667 152.813 250 208.333 250C263.854 250 314.021 270.667 348.375 298.75C333.273 322.159 312.54 341.406 288.074 354.727C263.608 368.048 236.191 375.019 208.333 375C180.476 375.019 153.059 368.048 128.592 354.727C104.126 341.406 83.3933 322.159 68.2917 298.75Z" fill="black"/>
</svg>
