<svg width="170" height="85" viewBox="0 0 170 85" fill="none" xmlns="http://www.w3.org/2000/svg">
<path d="M79.9201 45.6435C79.8936 45.6071 79.8586 45.4535 79.9201 45.6435V45.6435ZM66.5302 45.4433C66.8723 44.7422 69.048 45.2296 70.4405 45.7072C69.2869 45.5145 67.3234 45.8887 66.5302 45.4433ZM84.9346 2.9107C85.1929 2.53921 85.4331 2.25289 85.6007 2.21382C85.3814 2.44984 85.1552 2.67606 84.9346 2.9107ZM71.0289 45.9267C70.8585 45.8568 70.6602 45.7829 70.441 45.7074C70.684 45.7479 70.8767 45.8233 71.0289 45.9267ZM81.6663 9.80227C81.6259 9.80365 80.8912 10.414 80.7571 10.5229C80.7613 10.5061 80.7795 10.481 80.7893 10.4601C81.1524 10.0802 81.4694 9.81346 81.6664 9.80226L81.6663 9.80227ZM79.3013 12.2981C79.1435 12.4713 78.9688 12.6961 78.7817 12.914C78.9185 12.738 79.0638 12.5481 79.2147 12.354C79.265 12.3219 79.3013 12.2981 79.3013 12.2981V12.2981ZM88.0326 1.27242C88.7351 1.12999 89.0645 0.21362 89.7278 0C88.8787 0.276494 87.0185 3.49417 86.2826 4.23004C85.7072 4.80544 81.9687 8.60253 82.276 9.18351C82.431 9.10807 83.2564 8.26042 83.2731 8.28833C83.3583 8.44333 82.0805 9.66531 81.8961 9.71274C81.9855 9.30776 80.9702 10.0926 80.7902 10.4598C80.434 10.8313 80.0346 11.3131 79.6408 11.8103C79.6185 11.8187 79.3784 11.9429 79.5543 11.8591C79.6241 11.8214 79.6437 11.8102 79.6409 11.8102C79.4971 11.9918 79.3547 12.1719 79.2164 12.3507C78.9106 12.5504 77.8506 13.2612 77.9162 13.6145C78.2388 13.5042 78.5251 13.2152 78.7849 12.9108C78.4595 13.3325 78.1872 13.6816 78.021 13.8575C77.0546 14.8826 76.2 15.8475 75.2754 16.7861C74.2112 17.867 68.4576 23.2059 68.6671 24.2268C68.674 24.259 69.808 23.3023 69.7731 23.2033C69.8346 23.3178 69.0288 24.1864 68.9883 24.4462C70.9672 24.0985 74.1905 19.064 75.6093 17.5976C78.0323 15.0951 80.5391 12.4585 82.9859 9.99071C83.0097 10.2896 81.4093 12.1037 81.4344 12.1093C81.6844 12.1512 82.1675 11.2811 82.3394 11.0465C82.4483 11.0157 82.2332 11.5157 82.1047 11.707C82.8407 11.3733 83.3574 10.263 83.9426 9.84266C83.0502 12.7363 78.8898 15.5991 76.9654 17.8991C74.9279 20.336 72.9561 22.7465 70.9729 25.0438C69.2357 27.059 67.4705 29.2053 65.7053 31.3129C64.704 32.5083 63.5253 33.758 62.598 34.969C61.9556 35.8069 59.6011 38.0875 59.5997 39.1322C61.0018 38.547 62.4402 37.8823 63.8912 37.4815C65.9231 36.9187 72.5107 35.3588 74.2125 37.3237C74.2656 37.3851 73.5702 37.2413 72.8957 37.1268C74.1456 37.5276 75.8911 38.4242 75.8508 38.3502C77.1859 39.7397 78.8811 40.3333 79.7653 42.2773C80.437 43.7534 80.7121 45.5814 80.5082 47.1917C80.2876 48.929 79.1941 50.7878 78.1802 52.1995C76.919 53.9578 75.3284 55.4744 73.513 56.6545C73.0173 56.977 68.5847 59.0272 68.5903 58.9169C68.6615 58.6334 70.3121 58.3834 69.8709 57.8095C69.6181 57.48 68.3822 58.2452 67.9729 58.3528C66.5806 58.7159 64.9997 58.998 63.5809 59.1935C58.7616 59.8583 52.3343 58.702 48.9722 54.4956C46.3341 51.1956 46.6637 47.1136 48.0911 43.46C48.3788 42.7226 51.535 35.8392 52.2484 36.1938C51.5488 36.6463 51.3407 37.1239 51.6242 37.6281C52.391 37.4075 54.624 33.2961 55.1352 32.5266C56.1169 31.0476 56.716 30.1524 57.8082 28.8188C58.836 27.5633 60.0077 26.277 61.1458 25.009C61.6066 24.4951 64.8926 19.6728 65.8129 19.8587C65.5852 21.1239 62.8956 23.2536 62.0199 24.2744C60.932 25.5438 59.886 27.0339 58.8275 28.3383C55.547 32.3827 52.2065 37.0052 49.9247 41.6696C48.8354 43.8957 47.5381 46.9416 47.9794 49.4958C48.3019 51.3671 50.8716 56.4351 53.4594 56.2383C50.915 53.8573 48.4277 51.8714 48.6274 47.9611C48.7462 45.6206 49.9737 43.3637 51.0489 41.3388C55.297 33.3368 61.3429 26.005 67.5837 19.4681C68.8112 18.1819 81.6526 4.28463 82.2531 4.82948C82.0073 6.00398 78.9811 8.08341 78.1111 8.97855C76.9966 10.1237 75.744 11.4505 74.61 12.6639C72.3532 15.0786 70.0797 17.4945 67.8439 19.9091C65.6485 22.2804 63.4616 24.7355 61.3402 27.1572C58.9997 29.8316 55.4245 33.3173 54.4204 36.6788C56.9774 34.9331 57.6701 30.0941 60.5009 28.5621C60.5303 28.7674 60.0889 28.9657 60.1979 29.1571C60.1071 28.9741 65.4013 23.2582 66.0899 22.4928C72.0726 15.8384 78.6405 9.61251 84.9378 2.91238C84.414 3.66792 83.8121 4.80332 83.537 5.12167C82.9393 5.81158 79.966 8.09217 80.1114 8.92585C80.6127 8.77223 79.589 9.61017 79.5555 9.77908C80.3026 9.73439 88.7407 0.109697 88.7714 0.177803C88.8678 0.357952 88.0843 1.04225 88.034 1.27273L88.0326 1.27242ZM51.5004 41.4117C51.2015 41.7008 51.3887 41.8768 51.5004 41.4117V41.4117ZM52.654 39.6152C52.8831 39.5608 53.0856 38.7005 53.0395 38.776C53.0605 38.7313 52.594 39.6292 52.654 39.6152ZM53.2335 38.4525C52.9878 38.6843 53.4263 38.2793 53.2335 38.4525V38.4525ZM51.1528 38.1451C51.0662 38.3435 51.4014 37.5949 51.1528 38.1451V38.1451ZM50.5398 39.0621C50.2661 39.6822 51.1696 38.8093 50.9616 38.5608C50.8275 38.4337 50.611 39.0062 50.5398 39.0621ZM49.7242 40.4715C49.6753 40.7145 49.5371 40.8081 49.5901 41.0776C49.7982 40.9212 50.3805 39.8669 50.3024 39.6643C50.3331 39.7523 49.8024 40.3556 49.7242 40.4715L49.7242 40.4715ZM79.8017 44.9599C79.6998 45.1624 79.8254 45.612 79.9539 45.8229C79.8883 45.6204 79.8981 45.5869 79.9819 45.7224C79.9497 45.559 79.7291 45.1024 79.8017 44.9599L79.8017 44.9599ZM59.3724 30.2818C59.3501 30.2203 57.9745 32.0051 58.0444 31.9031C58.0737 31.8626 59.5443 30.7398 59.3724 30.2818ZM54.7902 56.8485C54.7763 57.3108 57.1183 57.5258 57.4339 57.5747C57.6364 57.3233 55.0249 56.7983 54.7902 56.8485ZM59.3965 57.7156C59.5571 57.5858 58.5364 57.7017 58.507 57.7255C58.5726 57.6696 59.1647 57.9084 59.3965 57.7156ZM63.5119 57.7213C63.7047 57.516 62.7858 57.2548 62.6908 57.6724C63.0748 57.8456 63.1307 57.6598 63.5119 57.7213ZM66.2785 57.2995C66.5802 57.0998 65.4894 56.8289 65.5774 57.2325C65.6068 57.3833 66.1514 57.2632 66.2785 57.2995ZM67.3558 49.9159C67.3767 50.0695 65.881 49.9089 66.5025 50.441C66.712 50.6183 67.4131 50.1854 67.3558 49.9159ZM67.9019 56.731C68.4171 56.5341 66.8348 56.657 66.7232 57.0117C66.6464 57.2031 67.7804 56.8511 67.9019 56.731ZM67.8624 49.8012C68.5998 50.0177 67.673 49.0419 68.4969 49.141C69.5624 48.8407 71.6111 46.8869 71.2648 46.1634C71.2173 46.0629 71.1237 45.993 71.026 45.926C71.3318 46.0517 71.5441 46.1607 71.5985 46.2277C71.9714 46.0796 71.248 45.3856 71.0162 45.4149C71.7437 45.5378 69.075 45.0448 68.3654 45.0295C66.7427 44.9946 64.7247 45.5784 63.1537 46.137C62.2306 46.4652 61.186 47.2221 60.1678 47.4874C58.9151 47.8142 58.3411 47.4888 57.2588 48.261C57.6861 47.458 59.6705 47.1256 59.8842 46.2612C59.0323 46.1871 57.58 47.0488 56.7853 47.5725C56.7462 47.5878 56.7169 47.6074 56.6848 47.6255C56.7337 47.5836 56.7686 47.5641 56.7853 47.5724C56.7658 47.5598 57.4347 47.0515 57.4612 46.8867C57.1708 46.8155 55.8762 47.6506 55.6626 47.7944C55.5969 47.8307 55.164 47.4034 55.0578 47.4061C54.597 49.8891 56.1387 50.7089 58.5337 50.8542C59.0364 50.885 65.156 52.0552 66.005 50.385C65.9631 50.3933 65.5678 50.4534 65.2033 50.5093C66.1977 50.1838 68.0117 49.3585 68.0382 49.4353C67.8637 49.4813 67.8051 49.6028 67.8623 49.8011L67.8624 49.8012ZM71.6498 45.5214C71.7489 45.5297 71.411 45.4809 71.6498 45.5214V45.5214ZM71.845 46.1584C71.7947 46.0774 71.4595 46.4488 71.6243 46.5885C71.838 46.7826 71.8184 46.2184 71.845 46.1584ZM71.845 45.538C71.8869 45.5393 71.7053 45.5254 71.845 45.538V45.538ZM71.1764 47.2672C71.3998 47.2225 71.7615 46.9893 71.6372 46.7281C71.5325 46.4935 71.1177 47.0647 71.1764 47.2672ZM68.4791 49.3652C68.6495 49.4196 68.359 49.3219 68.4791 49.3652V49.3652ZM69.0854 56.4941C69.3884 56.3614 69.4737 56.2078 69.3425 56.0346C68.7531 56.0835 69.038 56.5583 69.0854 56.4941ZM68.7968 49.224C69.0733 49.5033 70.1374 48.9043 70.1891 48.4741C70.2603 48.4127 71.1038 48.0426 70.6779 47.7479C70.65 47.727 68.7605 49.1849 68.7969 49.2241L68.7968 49.224ZM70.84 55.5543C70.7031 55.518 70.5747 55.6716 70.84 55.5543V55.5543ZM71.6913 57.0263C72.2499 56.5962 70.8673 57.2595 70.6481 57.4843C70.8925 57.5541 71.3841 57.0472 71.6913 57.0263ZM74.4135 55.2709C74.8338 55.053 74.0601 55.3491 74.4135 55.2709V55.2709ZM74.4508 53.3255C74.9089 52.2865 73.4998 53.7905 73.3615 53.8687C72.7624 54.215 71.6634 54.8351 71.1871 55.3602C72.187 55.384 73.7749 53.9512 74.4508 53.3255H74.4508ZM72.3827 45.5513C72.3674 45.5526 72.3533 45.554 72.3449 45.554C72.3492 45.554 72.3548 45.554 72.3785 45.5526C72.3883 45.5513 72.3841 45.5513 72.3827 45.5513V45.5513ZM72.2229 45.7664C72.1851 45.7957 72.4784 45.589 72.2229 45.7664V45.7664ZM71.9467 45.9964C72.1562 45.8093 72.1367 45.8219 71.9467 45.9964V45.9964ZM75.1381 52.4526C75.1158 52.3213 75.1521 52.7821 75.1381 52.4526V52.4526ZM77.2145 52.1816C77.4715 52.4246 77.6558 52.2822 77.7661 51.7543C77.9184 51.5253 77.283 52.0643 77.2145 52.1816ZM77.7046 49.1077C77.854 48.8912 77.8694 48.6455 77.7549 48.3732C77.4993 48.6036 77.3988 49.3437 77.2409 49.6384C77.3903 49.4834 77.5747 49.2851 77.7046 49.1077L77.7046 49.1077ZM77.3765 42.3877C77.6433 42.991 77.41 42.3611 77.3765 42.3877V42.3877ZM77.3723 42.3935C77.3304 42.4633 77.5246 42.7677 77.3723 42.3935V42.3935ZM77.9994 51.3911C78.3457 51.0295 77.6978 51.6062 77.9994 51.3911V51.3911ZM78.0409 48.1642C78.182 47.9785 78.2392 47.8179 78.0829 47.7145C77.8343 48.0022 77.8203 48.1516 78.0409 48.1642ZM78.2382 46.3037C78.4267 46.1474 78.4881 45.9461 78.4211 45.7031C78.5119 45.4154 78.5803 44.5091 78.3247 44.2955C78.5859 44.5371 77.8863 46.0551 78.2382 46.3038V46.3037ZM79.0335 49.0222C78.9706 49.2037 78.9454 49.3895 78.9566 49.5822C79.1982 49.6409 79.4761 48.863 79.4286 48.6773C79.2359 48.5837 79.1047 48.6996 79.0335 49.0221L79.0335 49.0222ZM78.8466 49.9333C78.8536 49.4389 78.193 50.7154 78.7209 50.3914C78.834 50.2405 78.8438 50.1204 78.8466 49.9333ZM78.7365 41.8162C78.6876 41.0691 77.2743 40.0456 76.8764 39.7536C76.9211 39.7871 78.7087 41.5649 78.7365 41.8162ZM77.0609 49.8594C76.9254 49.953 76.8556 50.0647 76.85 50.2113C76.9841 50.1247 77.0581 50.0088 77.0609 49.8594ZM76.0933 51.0703C75.7539 51.2826 75.5445 51.5619 75.4677 51.9055C75.6813 52.3859 76.8697 50.6458 76.0933 51.0703ZM75.8358 40.8976C75.8819 40.6323 75.368 40.3013 75.1236 40.2957C75.1766 40.6393 75.414 40.839 75.8358 40.8976ZM74.9679 52.5475C74.5335 52.5237 74.5893 52.9373 74.9678 52.5476C74.9678 52.549 74.965 52.5518 74.9678 52.5476C74.9761 52.5406 74.9929 52.5224 75.0293 52.4847C75.0265 52.4875 74.9706 52.5447 74.9679 52.5475V52.5475ZM74.5941 40.1842C74.8832 40.1744 73.995 39.4608 73.9308 39.8253C73.8749 40.1409 74.3623 40.1968 74.5941 40.1842ZM72.8728 37.9292C72.7205 37.8943 74.2665 38.3956 74.2483 38.3747C73.888 38.0465 73.43 37.8971 72.8728 37.9292ZM69.8163 36.9491C69.6152 36.9478 71.0578 37.1279 70.9685 37.0455C70.6235 36.8625 70.2395 36.8304 69.8163 36.9491ZM70.7735 37.653C70.7302 37.6838 70.1521 37.4533 70.0041 37.5735C70.032 37.5497 70.6339 37.748 70.7735 37.653ZM68.7553 36.9512C68.4662 37.042 69.5792 37.063 69.4521 36.975C69.2384 36.8744 69.0052 36.8661 68.7553 36.9512ZM69.727 37.5679C69.0274 37.2397 69.7102 37.9017 69.727 37.5679V37.5679ZM68.423 37.5679C68.0544 37.5414 67.6954 37.5805 67.3463 37.6824C67.6647 37.7411 69.2875 37.8668 68.423 37.5679ZM66.6166 37.7423C66.3596 37.8149 67.0411 37.8038 67.157 37.8191C67.0606 37.6055 66.8819 37.5747 66.6166 37.7423ZM66.1714 37.9603C65.8586 37.783 65.515 37.8263 65.1408 38.0888C65.0918 38.0986 66.0443 38.1712 66.1714 37.9603ZM72.1813 39.1103C71.3072 37.602 63.6166 39.7093 62.6739 40.3684C59.9953 40.8209 58.1282 41.2147 56.7234 43.7801C57.7637 43.0861 58.712 42.4646 59.5402 41.7063C59.6673 41.9367 64.1137 39.9983 65.3664 39.7358C66.0144 39.6003 71.8769 38.5488 72.1813 39.1102V39.1103ZM60.3143 39.2747C59.8576 39.8487 59.0993 39.8026 58.686 40.5022C58.6734 40.5078 62.3238 39.0652 62.3519 38.9912C62.4133 38.7537 60.2111 39.3669 60.3144 39.2747H60.3143ZM59.6631 29.9309C59.8321 29.7494 59.9983 29.6446 60.1533 29.4379C60.1212 28.9519 59.4732 30.1445 59.6631 29.9309ZM80.2004 13.3675C79.5762 14.1202 81.0593 12.6176 81.2897 12.2615C80.854 12.3466 80.4881 13.0575 80.2004 13.3675ZM79.8931 13.9239C79.8219 13.7229 78.0246 15.6236 78.0818 15.5593C78.1614 15.4783 80.0173 14.3764 79.8931 13.9239ZM77.6298 16.0689C77.5432 16.3202 77.7722 15.749 77.6298 16.0689V16.0689ZM77.3204 16.3159C77.1528 16.4919 76.9853 16.6679 76.8191 16.8424C77.0035 16.7754 77.28 16.5129 77.3204 16.3159ZM67.1191 26.021C67.2475 25.9721 67.3174 25.8856 67.3272 25.7599C67.2001 25.8073 67.1316 25.8953 67.1191 26.021ZM67.5966 25.4729C67.8899 25.2746 67.3579 25.6027 67.5966 25.4729V25.4729ZM77.1149 12.5992C76.8411 12.6955 76.4097 12.979 76.3594 13.2905C76.675 13.1592 76.9655 12.9232 77.1149 12.5992ZM76.7868 14.8396C76.784 14.8271 77.5465 14.0882 77.6512 13.9709C77.6275 13.9975 76.7044 14.4067 76.7868 14.8396ZM77.7689 11.9389C77.9379 11.2476 79.0707 10.9278 79.2005 10.171C79.241 10.1584 76.9478 12.2768 77.1992 12.4473C77.3402 12.5325 77.7214 11.9878 77.7689 11.9389L77.7689 11.9389ZM79.6398 11.8122C79.6398 11.8122 79.6411 11.8109 79.6398 11.8122V11.8122ZM65.2038 50.5105C64.8644 50.6208 64.6187 50.6754 64.5741 50.6139C64.5698 50.6097 64.8742 50.5608 65.2038 50.5105V50.5105ZM55.6656 47.7954C55.607 47.8345 55.6223 47.8233 55.6643 47.7954C55.6643 47.7941 55.6656 47.7954 55.6656 47.7954ZM56.2171 48.0321C56.3945 47.8967 56.4824 47.7403 56.6876 47.6258C56.3386 47.9261 55.3023 49.324 55.1906 49.1997C55.4826 48.6104 55.6404 48.3436 56.2171 48.0321V48.0321ZM63.6058 59.9524C63.8181 60.067 66.5705 59.345 66.6 59.338C66.2844 59.4176 64.2021 60.2987 63.6058 59.9524ZM83.3565 9.59048C83.3509 9.26093 84.1414 8.57936 84.3272 8.38393C84.4487 8.25407 83.3608 9.67295 83.3565 9.59048ZM74.5484 37.3354C74.7146 37.2809 74.8905 37.3144 75.0721 37.38C74.885 37.3158 74.7048 37.2823 74.5484 37.3354ZM77.3972 38.874C76.7032 38.8055 75.8415 37.6645 75.0733 37.3824C75.8861 37.6618 76.9056 38.8083 77.3972 38.874ZM59.4887 59.9092C59.5208 59.9106 58.028 60.2402 57.7347 59.8575C57.7626 59.8883 59.5208 59.9092 59.4887 59.9092ZM57.693 28.6435C57.7209 28.6072 57.1749 29.3725 57.154 29.2985C57.1387 29.0932 58.1693 28.0123 58.1581 27.9564C58.1791 28.1086 57.7503 28.5569 57.6931 28.6436L57.693 28.6435ZM66.874 46.1144C66.814 45.5153 66.8992 46.1269 66.874 46.1144V46.1144ZM85.7008 2.89824C85.705 3.1063 84.9104 3.5798 85.0123 3.48619C84.976 3.51831 85.7022 2.83263 85.7008 2.89824ZM59.8616 60.049C59.9133 59.968 60.2233 60.0073 60.321 59.9192C60.6018 59.8508 60.6855 59.915 60.5724 60.1161C60.6031 60.1147 59.8197 60.0979 59.8616 60.049L59.8616 60.049ZM62.0884 26.7768C62.1093 26.9388 61.5745 27.3647 61.5815 27.3955C61.5326 27.2586 62.0856 26.767 62.0884 26.7768ZM60.1357 41.3835C60.0449 41.5567 59.4571 41.6809 59.5548 41.6153C59.7307 41.4309 59.9235 41.3541 60.1357 41.3835ZM56.8467 49.9458C57.6176 50.2348 56.7573 49.9136 56.8467 49.9458V49.9458ZM52.9954 35.0264C53.0848 35.0111 52.7315 35.5948 52.7468 35.5585C52.6727 35.6618 52.7789 35.0767 52.9954 35.0264ZM66.2079 19.5863C66.1228 19.6896 66.1366 19.6602 66.1813 19.589C66.1912 19.5877 66.1954 19.589 66.2079 19.5863ZM66.1814 19.5883C65.8364 19.6498 66.3447 19.2713 66.3447 19.2699C66.5067 19.1051 66.2735 19.4431 66.1814 19.5883ZM60.6997 28.3653C60.7653 28.3011 60.9344 27.9449 61.0587 27.9337C61.1941 27.9184 60.6006 28.6474 60.6997 28.3653ZM63.3699 50.7065C63.4621 50.7079 63.7386 50.5809 63.8308 50.6521C63.9425 50.7443 63.1478 50.842 63.3699 50.7065ZM64.0501 50.5712C64.6995 50.6172 64.0194 50.5935 64.0501 50.5712V50.5712ZM69.9928 47.1052C69.6939 47.1569 70.4564 46.6262 69.9928 47.1052V47.1052ZM54.6424 59.1024C55.2345 59.2811 54.0712 58.932 54.6424 59.1024V59.1024ZM61.9181 60.0115C62.0396 59.9304 62.1793 59.9179 62.3287 59.9724C62.2072 60.0562 62.0661 60.0687 61.9181 60.0115ZM62.8002 59.8956C63.3183 59.8369 62.4035 60.1386 62.8002 59.8956V59.8956ZM69.5526 48.0487C69.7705 48.1228 69.2817 47.9594 69.5526 48.0487V48.0487ZM71.0767 45.5172C71.1353 45.5647 71.1241 45.5995 71.0528 45.6037C70.9928 45.5493 71.0026 45.5214 71.0767 45.5172ZM60.9904 50.8195C61.3214 50.1464 61.1608 51.5401 60.9904 50.8195V50.8195ZM58.3301 50.4399C58.4181 50.3785 58.4963 50.3869 58.5689 50.4651C58.4837 50.5266 58.4013 50.5167 58.3301 50.4399ZM82.8499 10.7159C82.8276 10.8416 82.7508 10.9213 82.6195 10.959C82.6404 10.8333 82.7186 10.7522 82.8499 10.7159ZM73.9214 11.9617C73.818 12.1475 74.0289 11.7216 73.9214 11.9617V11.9617ZM62.0128 36.4716C61.6832 36.4814 62.26 36.4367 62.0128 36.4716V36.4716ZM57.0527 59.7504C57.3613 59.8048 57.1784 59.8719 57.0527 59.7504V59.7504ZM56.1798 59.615C56.3152 59.5382 56.5093 59.6695 56.1798 59.615V59.615ZM52.2875 36.2141C52.2527 36.2224 52.5808 36.1205 52.2875 36.2141V36.2141ZM75.9894 11.48C75.9852 11.2733 75.9937 11.5512 75.9894 11.48V11.48ZM78.9213 8.94264C78.7439 9.29173 78.9828 8.64377 78.9213 8.94264V8.94264ZM86.2053 1.61918C86.0937 1.79511 86.3241 1.39434 86.2053 1.61918V1.61918ZM61.9139 50.8594C61.9503 50.7909 62.1276 50.8259 61.9139 50.8594V50.8594ZM113.192 45.6435C113.166 45.6071 113.131 45.4535 113.192 45.6435V45.6435ZM99.8024 45.4433C100.145 44.7422 102.32 45.2296 103.713 45.7072C102.559 45.5145 100.596 45.8887 99.8024 45.4433ZM118.207 2.9107C118.465 2.53921 118.705 2.25289 118.873 2.21382C118.654 2.44984 118.427 2.67606 118.207 2.9107ZM104.301 45.9267C104.131 45.8568 103.932 45.7829 103.713 45.7074C103.956 45.7479 104.149 45.8233 104.301 45.9267ZM114.939 9.80227C114.898 9.80365 114.163 10.414 114.029 10.5229C114.034 10.5061 114.052 10.481 114.062 10.4601C114.425 10.0802 114.742 9.81346 114.939 9.80226L114.939 9.80227ZM112.574 12.2981C112.416 12.4713 112.241 12.6961 112.054 12.914C112.191 12.738 112.336 12.5481 112.487 12.354C112.537 12.3219 112.574 12.2981 112.574 12.2981V12.2981ZM121.305 1.27242C122.007 1.12999 122.337 0.21362 123 0C122.151 0.276494 120.291 3.49417 119.555 4.23004C118.979 4.80544 115.241 8.60253 115.548 9.18351C115.703 9.10807 116.529 8.26042 116.545 8.28833C116.631 8.44333 115.353 9.66531 115.168 9.71274C115.258 9.30776 114.242 10.0926 114.062 10.4598C113.706 10.8313 113.307 11.3131 112.913 11.8103C112.891 11.8187 112.651 11.9429 112.827 11.8591C112.896 11.8214 112.916 11.8102 112.913 11.8102C112.769 11.9918 112.627 12.1719 112.489 12.3507C112.183 12.5504 111.123 13.2612 111.188 13.6145C111.511 13.5042 111.797 13.2152 112.057 12.9108C111.732 13.3325 111.459 13.6816 111.293 13.8575C110.327 14.8826 109.472 15.8475 108.548 16.7861C107.483 17.867 101.73 23.2059 101.939 24.2268C101.946 24.259 103.08 23.3023 103.045 23.2033C103.107 23.3178 102.301 24.1864 102.261 24.4462C104.239 24.0985 107.463 19.064 108.882 17.5976C111.305 15.0951 113.811 12.4585 116.258 9.99071C116.282 10.2896 114.682 12.1037 114.707 12.1093C114.957 12.1512 115.44 11.2811 115.612 11.0465C115.721 11.0157 115.505 11.5157 115.377 11.707C116.113 11.3733 116.63 10.263 117.215 9.84266C116.322 12.7363 112.162 15.5991 110.238 17.8991C108.2 20.336 106.228 22.7465 104.245 25.0438C102.508 27.059 100.743 29.2053 98.9776 31.3129C97.9763 32.5083 96.7976 33.758 95.8702 34.969C95.2278 35.8069 92.8734 38.0875 92.8719 39.1322C94.2741 38.547 95.7124 37.8823 97.1634 37.4815C99.1954 36.9187 105.783 35.3588 107.485 37.3237C107.538 37.3851 106.842 37.2413 106.168 37.1268C107.418 37.5276 109.163 38.4242 109.123 38.3502C110.458 39.7397 112.153 40.3333 113.038 42.2773C113.709 43.7534 113.984 45.5814 113.78 47.1917C113.56 48.929 112.466 50.7878 111.452 52.1995C110.191 53.9578 108.601 55.4744 106.785 56.6545C106.29 56.977 101.857 59.0272 101.863 58.9169C101.934 58.6334 103.584 58.3834 103.143 57.8095C102.89 57.48 101.654 58.2452 101.245 58.3528C99.8528 58.7159 98.272 58.998 96.8532 59.1935C92.0339 59.8583 85.6066 58.702 82.2445 54.4956C79.6064 51.1956 79.9359 47.1136 81.3633 43.46C81.651 42.7226 84.8072 35.8392 85.5207 36.1938C84.821 36.6463 84.613 37.1239 84.8965 37.6281C85.6632 37.4075 87.8963 33.2961 88.4075 32.5266C89.3892 31.0476 89.9883 30.1524 91.0804 28.8188C92.1082 27.5633 93.28 26.277 94.418 25.009C94.8789 24.4951 98.1649 19.6728 99.0852 19.8587C98.8575 21.1239 96.1678 23.2536 95.2922 24.2744C94.2042 25.5438 93.1583 27.0339 92.0997 28.3383C88.8192 32.3827 85.4787 37.0052 83.1969 41.6696C82.1077 43.8957 80.8103 46.9416 81.2516 49.4958C81.5742 51.3671 84.1438 56.4351 86.7316 56.2383C84.1872 53.8573 81.6999 51.8714 81.8997 47.9611C82.0184 45.6206 83.2459 43.3637 84.3212 41.3388C88.5693 33.3368 94.6151 26.005 100.856 19.4681C102.083 18.1819 114.925 4.28463 115.525 4.82948C115.28 6.00398 112.253 8.08341 111.383 8.97855C110.269 10.1237 109.016 11.4505 107.882 12.6639C105.625 15.0786 103.352 17.4945 101.116 19.9091C98.9207 22.2804 96.7339 24.7355 94.6124 27.1572C92.2719 29.8316 88.6968 33.3173 87.6926 36.6788C90.2497 34.9331 90.9424 30.0941 93.7731 28.5621C93.8025 28.7674 93.3612 28.9657 93.4701 29.1571C93.3793 28.9741 98.6736 23.2582 99.3621 22.4928C105.345 15.8384 111.913 9.61251 118.21 2.91238C117.686 3.66792 117.084 4.80332 116.809 5.12167C116.212 5.81158 113.238 8.09217 113.384 8.92585C113.885 8.77223 112.861 9.61017 112.828 9.77908C113.575 9.73439 122.013 0.109697 122.044 0.177803C122.14 0.357952 121.357 1.04225 121.306 1.27273L121.305 1.27242ZM84.7726 41.4117C84.4737 41.7008 84.6609 41.8768 84.7726 41.4117V41.4117ZM85.9263 39.6152C86.1553 39.5608 86.3579 38.7005 86.3118 38.776C86.3327 38.7313 85.8662 39.6292 85.9263 39.6152ZM86.5058 38.4525C86.26 38.6843 86.6985 38.2793 86.5058 38.4525V38.4525ZM84.425 38.1451C84.3384 38.3435 84.6736 37.5949 84.425 38.1451V38.1451ZM83.8121 39.0621C83.5383 39.6822 84.4419 38.8093 84.2338 38.5608C84.0998 38.4337 83.8833 39.0062 83.8121 39.0621ZM82.9965 40.4715C82.9476 40.7145 82.8094 40.8081 82.8624 41.0776C83.0705 40.9212 83.6528 39.8669 83.5746 39.6643C83.6054 39.7523 83.0747 40.3556 82.9965 40.4715L82.9965 40.4715ZM113.074 44.9599C112.972 45.1624 113.098 45.612 113.226 45.8229C113.161 45.6204 113.17 45.5869 113.254 45.7224C113.222 45.559 113.001 45.1024 113.074 44.9599L113.074 44.9599ZM92.6447 30.2818C92.6224 30.2203 91.2468 32.0051 91.3166 31.9031C91.346 31.8626 92.8165 30.7398 92.6447 30.2818ZM88.0625 56.8485C88.0485 57.3108 90.3905 57.5258 90.7061 57.5747C90.9087 57.3233 88.2971 56.7983 88.0625 56.8485ZM92.6688 57.7156C92.8294 57.5858 91.8086 57.7017 91.7792 57.7255C91.8449 57.6696 92.437 57.9084 92.6688 57.7156ZM96.7842 57.7213C96.9769 57.516 96.058 57.2548 95.963 57.6724C96.3471 57.8456 96.403 57.6598 96.7842 57.7213ZM99.5508 57.2995C99.8524 57.0998 98.7617 56.8289 98.8497 57.2325C98.879 57.3833 99.4237 57.2632 99.5508 57.2995ZM100.628 49.9159C100.649 50.0695 99.1533 49.9089 99.7748 50.441C99.9843 50.6183 100.685 50.1854 100.628 49.9159ZM101.174 56.731C101.689 56.5341 100.107 56.657 99.9955 57.0117C99.9187 57.2031 101.053 56.8511 101.174 56.731ZM101.135 49.8012C101.872 50.0177 100.945 49.0419 101.769 49.141C102.835 48.8407 104.883 46.8869 104.537 46.1634C104.49 46.0629 104.396 45.993 104.298 45.926C104.604 46.0517 104.816 46.1607 104.871 46.2277C105.244 46.0796 104.52 45.3856 104.288 45.4149C105.016 45.5378 102.347 45.0448 101.638 45.0295C100.015 44.9946 97.9969 45.5784 96.4259 46.137C95.5028 46.4652 94.4582 47.2221 93.44 47.4874C92.1874 47.8142 91.6134 47.4888 90.531 48.261C90.9584 47.458 92.9427 47.1256 93.1564 46.2612C92.3045 46.1871 90.8522 47.0488 90.0576 47.5725C90.0185 47.5878 89.9891 47.6074 89.957 47.6255C90.0059 47.5836 90.0408 47.5641 90.0576 47.5724C90.038 47.5598 90.707 47.0515 90.7335 46.8867C90.443 46.8155 89.1484 47.6506 88.9348 47.7944C88.8692 47.8307 88.4362 47.4034 88.3301 47.4061C87.8692 49.8891 89.411 50.7089 91.806 50.8542C92.3087 50.885 98.4282 52.0552 99.2773 50.385C99.2353 50.3933 98.8401 50.4534 98.4756 50.5093C99.4699 50.1838 101.284 49.3585 101.31 49.4353C101.136 49.4813 101.077 49.6028 101.135 49.8011L101.135 49.8012ZM104.922 45.5214C105.021 45.5297 104.683 45.4809 104.922 45.5214V45.5214ZM105.117 46.1584C105.067 46.0774 104.732 46.4488 104.897 46.5885C105.11 46.7826 105.091 46.2184 105.117 46.1584ZM105.117 45.538C105.159 45.5393 104.978 45.5254 105.117 45.538V45.538ZM104.449 47.2672C104.672 47.2225 105.034 46.9893 104.909 46.7281C104.805 46.4935 104.39 47.0647 104.449 47.2672ZM101.751 49.3652C101.922 49.4196 101.631 49.3219 101.751 49.3652V49.3652ZM102.358 56.4941C102.661 56.3614 102.746 56.2078 102.615 56.0346C102.025 56.0835 102.31 56.5583 102.358 56.4941ZM102.069 49.224C102.346 49.5033 103.41 48.9043 103.461 48.4741C103.533 48.4127 104.376 48.0426 103.95 47.7479C103.922 47.727 102.033 49.1849 102.069 49.2241L102.069 49.224ZM104.112 55.5543C103.975 55.518 103.847 55.6716 104.112 55.5543V55.5543ZM104.964 57.0263C105.522 56.5962 104.14 57.2595 103.92 57.4843C104.165 57.5541 104.656 57.0472 104.964 57.0263ZM107.686 55.2709C108.106 55.053 107.332 55.3491 107.686 55.2709V55.2709ZM107.723 53.3255C108.181 52.2865 106.772 53.7905 106.634 53.8687C106.035 54.215 104.936 54.8351 104.459 55.3602C105.459 55.384 107.047 53.9512 107.723 53.3255H107.723ZM105.655 45.5513C105.64 45.5526 105.626 45.554 105.617 45.554C105.621 45.554 105.627 45.554 105.651 45.5526C105.661 45.5513 105.656 45.5513 105.655 45.5513V45.5513ZM105.495 45.7664C105.457 45.7957 105.751 45.589 105.495 45.7664V45.7664ZM105.219 45.9964C105.428 45.8093 105.409 45.8219 105.219 45.9964V45.9964ZM108.41 52.4526C108.388 52.3213 108.424 52.7821 108.41 52.4526V52.4526ZM110.487 52.1816C110.744 52.4246 110.928 52.2822 111.038 51.7543C111.191 51.5253 110.555 52.0643 110.487 52.1816ZM110.977 49.1077C111.126 48.8912 111.142 48.6455 111.027 48.3732C110.772 48.6036 110.671 49.3437 110.513 49.6384C110.663 49.4834 110.847 49.2851 110.977 49.1077L110.977 49.1077ZM110.649 42.3877C110.916 42.991 110.682 42.3611 110.649 42.3877V42.3877ZM110.645 42.3935C110.603 42.4633 110.797 42.7677 110.645 42.3935V42.3935ZM111.272 51.3911C111.618 51.0295 110.97 51.6062 111.272 51.3911V51.3911ZM111.313 48.1642C111.454 47.9785 111.511 47.8179 111.355 47.7145C111.107 48.0022 111.093 48.1516 111.313 48.1642ZM111.51 46.3037C111.699 46.1474 111.76 45.9461 111.693 45.7031C111.784 45.4154 111.853 44.5091 111.597 44.2955C111.858 44.5371 111.159 46.0551 111.51 46.3038V46.3037ZM112.306 49.0222C112.243 49.2037 112.218 49.3895 112.229 49.5822C112.47 49.6409 112.748 48.863 112.701 48.6773C112.508 48.5837 112.377 48.6996 112.306 49.0221L112.306 49.0222ZM112.119 49.9333C112.126 49.4389 111.465 50.7154 111.993 50.3914C112.106 50.2405 112.116 50.1204 112.119 49.9333ZM112.009 41.8162C111.96 41.0691 110.547 40.0456 110.149 39.7536C110.193 39.7871 111.981 41.5649 112.009 41.8162ZM110.333 49.8594C110.198 49.953 110.128 50.0647 110.122 50.2113C110.256 50.1247 110.33 50.0088 110.333 49.8594ZM109.366 51.0703C109.026 51.2826 108.817 51.5619 108.74 51.9055C108.954 52.3859 110.142 50.6458 109.366 51.0703ZM109.108 40.8976C109.154 40.6323 108.64 40.3013 108.396 40.2957C108.449 40.6393 108.686 40.839 109.108 40.8976ZM108.24 52.5475C107.806 52.5237 107.862 52.9373 108.24 52.5476C108.24 52.549 108.237 52.5518 108.24 52.5476C108.248 52.5406 108.265 52.5224 108.302 52.4847C108.299 52.4875 108.243 52.5447 108.24 52.5475V52.5475ZM107.866 40.1842C108.155 40.1744 107.267 39.4608 107.203 39.8253C107.147 40.1409 107.635 40.1968 107.866 40.1842ZM106.145 37.9292C105.993 37.8943 107.539 38.3956 107.521 38.3747C107.16 38.0465 106.702 37.8971 106.145 37.9292ZM103.089 36.9491C102.887 36.9478 104.33 37.1279 104.241 37.0455C103.896 36.8625 103.512 36.8304 103.089 36.9491ZM104.046 37.653C104.002 37.6838 103.424 37.4533 103.276 37.5735C103.304 37.5497 103.906 37.748 104.046 37.653ZM102.028 36.9512C101.738 37.042 102.851 37.063 102.724 36.975C102.511 36.8744 102.277 36.8661 102.028 36.9512ZM102.999 37.5679C102.3 37.2397 102.982 37.9017 102.999 37.5679V37.5679ZM101.695 37.5679C101.327 37.5414 100.968 37.5805 100.619 37.6824C100.937 37.7411 102.56 37.8668 101.695 37.5679ZM99.8888 37.7423C99.6319 37.8149 100.313 37.8038 100.429 37.8191C100.333 37.6055 100.154 37.5747 99.8888 37.7423ZM99.4436 37.9603C99.1308 37.783 98.7872 37.8263 98.413 38.0888C98.3641 38.0986 99.3166 38.1712 99.4436 37.9603ZM105.454 39.1103C104.579 37.602 96.8888 39.7093 95.9462 40.3684C93.2676 40.8209 91.4005 41.2147 89.9956 43.7801C91.036 43.0861 91.9842 42.4646 92.8125 41.7063C92.9396 41.9367 97.3859 39.9983 98.6386 39.7358C99.2866 39.6003 105.149 38.5488 105.454 39.1102V39.1103ZM93.5865 39.2747C93.1299 39.8487 92.3715 39.8026 91.9582 40.5022C91.9456 40.5078 95.5961 39.0652 95.6241 38.9912C95.6856 38.7537 93.4833 39.3669 93.5867 39.2747H93.5865ZM92.9354 29.9309C93.1043 29.7494 93.2705 29.6446 93.4255 29.4379C93.3934 28.9519 92.7454 30.1445 92.9354 29.9309ZM113.473 13.3675C112.848 14.1202 114.332 12.6176 114.562 12.2615C114.126 12.3466 113.76 13.0575 113.473 13.3675ZM113.165 13.9239C113.094 13.7229 111.297 15.6236 111.354 15.5593C111.434 15.4783 113.29 14.3764 113.165 13.9239ZM110.902 16.0689C110.815 16.3202 111.044 15.749 110.902 16.0689V16.0689ZM110.593 16.3159C110.425 16.4919 110.258 16.6679 110.091 16.8424C110.276 16.7754 110.552 16.5129 110.593 16.3159ZM100.391 26.021C100.52 25.9721 100.59 25.8856 100.599 25.7599C100.472 25.8073 100.404 25.8953 100.391 26.021ZM100.869 25.4729C101.162 25.2746 100.63 25.6027 100.869 25.4729V25.4729ZM110.387 12.5992C110.113 12.6955 109.682 12.979 109.632 13.2905C109.947 13.1592 110.238 12.9232 110.387 12.5992ZM110.059 14.8396C110.056 14.8271 110.819 14.0882 110.923 13.9709C110.9 13.9975 109.977 14.4067 110.059 14.8396ZM111.041 11.9389C111.21 11.2476 112.343 10.9278 112.473 10.171C112.513 10.1584 110.22 12.2768 110.471 12.4473C110.612 12.5325 110.994 11.9878 111.041 11.9389L111.041 11.9389ZM112.912 11.8122C112.912 11.8122 112.913 11.8109 112.912 11.8122V11.8122ZM98.476 50.5105C98.1367 50.6208 97.891 50.6754 97.8463 50.6139C97.8421 50.6097 98.1465 50.5608 98.476 50.5105ZM88.9379 47.7954C88.8792 47.8345 88.8946 47.8233 88.9365 47.7954C88.9365 47.7941 88.9379 47.7954 88.9379 47.7954ZM89.4894 48.0321C89.6668 47.8967 89.7546 47.7403 89.9599 47.6258C89.6108 47.9261 88.5745 49.324 88.4629 49.1997C88.7548 48.6104 88.9126 48.3436 89.4894 48.0321V48.0321ZM96.878 59.9524C97.0903 60.067 99.8427 59.345 99.8722 59.338C99.5566 59.4176 97.4744 60.2987 96.878 59.9524ZM116.629 9.59048C116.623 9.26093 117.414 8.57936 117.599 8.38393C117.721 8.25407 116.633 9.67295 116.629 9.59048ZM107.821 37.3354C107.987 37.2809 108.163 37.3144 108.344 37.38C108.157 37.3158 107.977 37.2823 107.821 37.3354ZM110.669 38.874C109.975 38.8055 109.114 37.6645 108.346 37.3824C109.158 37.6618 110.178 38.8083 110.669 38.874ZM92.761 59.9092C92.7931 59.9106 91.3002 60.2402 91.007 59.8575C91.0349 59.8883 92.7931 59.9092 92.761 59.9092ZM90.9653 28.6435C90.9932 28.6072 90.4472 29.3725 90.4262 29.2985C90.4109 29.0932 91.4416 28.0123 91.4304 27.9564C91.4513 28.1086 91.0226 28.5569 90.9653 28.6436L90.9653 28.6435ZM100.146 46.1144C100.086 45.5153 100.171 46.1269 100.146 46.1144V46.1144ZM118.973 2.89824C118.977 3.1063 118.183 3.5798 118.285 3.48619C118.248 3.51831 118.974 2.83263 118.973 2.89824ZM93.1339 60.049C93.1855 59.968 93.4955 60.0073 93.5933 59.9192C93.874 59.8508 93.9578 59.915 93.8447 60.1161C93.8754 60.1147 93.092 60.0979 93.1339 60.049L93.1339 60.049ZM95.3606 26.7768C95.3815 26.9388 94.8468 27.3647 94.8538 27.3955C94.8049 27.2586 95.3578 26.767 95.3606 26.7768ZM93.408 41.3835C93.3172 41.5567 92.7293 41.6809 92.8271 41.6153C93.003 41.4309 93.1957 41.3541 93.408 41.3835ZM90.1189 49.9458C90.8898 50.2348 90.0296 49.9136 90.1189 49.9458V49.9458ZM86.2676 35.0264C86.357 35.0111 86.0037 35.5948 86.019 35.5585C85.945 35.6618 86.0511 35.0767 86.2676 35.0264ZM99.4802 19.5863C99.395 19.6896 99.4089 19.6602 99.4536 19.589C99.4634 19.5877 99.4676 19.589 99.4802 19.5863ZM99.4536 19.5883C99.1087 19.6498 99.617 19.2713 99.617 19.2699C99.7789 19.1051 99.5458 19.4431 99.4536 19.5883ZM93.9719 28.3653C94.0375 28.3011 94.2067 27.9449 94.3309 27.9337C94.4664 27.9184 93.8728 28.6474 93.9719 28.3653ZM96.6422 50.7065C96.7343 50.7079 97.0109 50.5809 97.103 50.6521C97.2147 50.7443 96.4201 50.842 96.6422 50.7065ZM97.3224 50.5712C97.9718 50.6172 97.2917 50.5935 97.3224 50.5712V50.5712ZM103.265 47.1052C102.966 47.1569 103.729 46.6262 103.265 47.1052V47.1052ZM87.9146 59.1024C88.5067 59.2811 87.3435 58.932 87.9146 59.1024V59.1024ZM95.1903 60.0115C95.3118 59.9304 95.4515 59.9179 95.6009 59.9724C95.4794 60.0562 95.3384 60.0687 95.1903 60.0115ZM96.0724 59.8956C96.5905 59.8369 95.6758 60.1386 96.0724 59.8956V59.8956ZM102.825 48.0487C103.043 48.1228 102.554 47.9594 102.825 48.0487V48.0487ZM104.349 45.5172C104.408 45.5647 104.396 45.5995 104.325 45.6037C104.265 45.5493 104.275 45.5214 104.349 45.5172ZM94.2626 50.8195C94.5936 50.1464 94.433 51.5401 94.2626 50.8195V50.8195ZM91.6023 50.4399C91.6903 50.3785 91.7685 50.3869 91.8411 50.4651C91.7559 50.5266 91.6735 50.5167 91.6023 50.4399ZM116.122 10.7159C116.1 10.8416 116.023 10.9213 115.892 10.959C115.913 10.8333 115.991 10.7522 116.122 10.7159ZM107.194 11.9617C107.09 12.1475 107.301 11.7216 107.194 11.9617V11.9617ZM95.285 36.4716C94.9555 36.4814 95.5322 36.4367 95.285 36.4716V36.4716ZM90.3249 59.7504C90.6335 59.8048 90.4506 59.8719 90.3249 59.7504V59.7504ZM89.452 59.615C89.5875 59.5382 89.7815 59.6695 89.452 59.615V59.615ZM85.5598 36.2141C85.5249 36.2224 85.8531 36.1205 85.5598 36.2141V36.2141ZM109.262 11.48C109.257 11.2733 109.266 11.5512 109.262 11.48V11.48ZM112.194 8.94264C112.016 9.29173 112.255 8.64377 112.194 8.94264V8.94264ZM119.478 1.61918C119.366 1.79511 119.596 1.39434 119.478 1.61918V1.61918ZM95.1862 50.8594C95.2225 50.7909 95.3998 50.8259 95.1862 50.8594V50.8594Z" fill="#222222"/>
<path d="M6.85023 84.8893C2.925 84.8893 0 82.2096 0 77.9352C0 73.6702 2.925 71 6.85023 71C9.74692 71 12.1059 72.4719 13.0966 74.9347L10.8226 75.7933C10.1527 74.1892 8.6524 73.2646 6.85023 73.2646C4.36862 73.2646 2.43436 75.0008 2.43436 77.9352C2.43436 80.8885 4.36871 82.6154 6.85023 82.6154C8.6524 82.6154 10.1527 81.6907 10.8226 80.0866L13.0966 80.9452C12.1058 83.4079 9.74692 84.8893 6.85023 84.8893V84.8893ZM31.4636 71.1794H33.9169V84.7005H31.4636V79.0015H25.387V84.7005H22.9243V71.1794H25.387V76.8502H31.4636V71.1794V71.1794ZM53.908 84.7005L52.8701 81.7661H47.0388L46.0009 84.7005H43.4816L48.4637 71.1794H51.4453L56.4179 84.7005H53.908V84.7005ZM47.7745 79.6903H52.1337L49.9541 73.5288L47.7745 79.6903ZM68.4348 82.5209H72.8224V84.7005H65.9815V71.1794H68.4348V82.5208V82.5209ZM84.9056 82.5209H89.2932V84.7005H82.4523V71.1794H84.9056V82.5208V82.5209ZM106.566 73.3495H101.405V76.869H105.972V79.0204H101.405V82.521H106.566V84.7006H98.9232V71.1795H106.566V73.3497V73.3495ZM126.085 71.1794H128.529V84.7005H125.755L119.339 74.595V84.7005H116.904V71.1794H119.65L126.085 81.2096V71.1794H126.085ZM145.396 84.8893C141.546 84.8893 138.658 82.2379 138.658 77.9729C138.658 73.6703 141.583 71 145.509 71C148.066 71 150.217 72.1228 151.397 74.1704L149.236 75.3216C148.472 73.8496 147.103 73.1608 145.509 73.1608C143.018 73.1608 141.112 74.8687 141.112 77.9164C141.112 80.898 142.923 82.7286 145.594 82.7286C147.547 82.7286 149.226 81.7001 149.576 79.5017H145.594V77.5013H151.916V84.7007H149.962V82.606C149.085 84.0402 147.547 84.8895 145.396 84.8895V84.8893ZM170 73.3495H164.839V76.869H169.406V79.0204H164.839V82.521H170V84.7006H162.357V71.1795H170V73.3497V73.3495Z" fill="#222222"/>
</svg>
