<svg width="66" height="58" viewBox="0 0 66 58" fill="none" xmlns="http://www.w3.org/2000/svg">
<path d="M28.5885 44.0368C28.5655 44.0017 28.5351 43.8535 28.5885 44.0368V44.0368ZM16.9604 43.8437C17.2575 43.1673 19.147 43.6376 20.3562 44.0983C19.3544 43.9124 17.6493 44.2735 16.9604 43.8437ZM32.9432 2.80824C33.1675 2.44983 33.3761 2.17359 33.5216 2.13589C33.3312 2.36361 33.1348 2.58187 32.9432 2.80824ZM20.8672 44.31C20.7192 44.2427 20.547 44.1713 20.3566 44.0985C20.5677 44.1376 20.735 44.2103 20.8672 44.31ZM30.105 9.45723C30.0698 9.45856 29.4318 10.0474 29.3154 10.1525C29.3191 10.1363 29.3348 10.1121 29.3434 10.0919C29.6587 9.72541 29.934 9.46802 30.105 9.45722L30.105 9.45723ZM28.0511 11.8652C27.9141 12.0323 27.7624 12.2492 27.5999 12.4594C27.7187 12.2897 27.8449 12.1064 27.9759 11.9191C28.0196 11.8881 28.0511 11.8652 28.0511 11.8652V11.8652ZM35.6336 1.22763C36.2436 1.09022 36.5297 0.206101 37.1057 0C36.3683 0.266761 34.7529 3.37117 34.1138 4.08115C33.6141 4.63628 30.3675 8.29972 30.6344 8.86025C30.769 8.78747 31.4858 7.96965 31.5004 7.99658C31.5743 8.14612 30.4647 9.32509 30.3045 9.37085C30.3822 8.98012 29.5005 9.73732 29.3441 10.0916C29.0348 10.4501 28.688 10.9148 28.346 11.3946C28.3266 11.4027 28.1181 11.5225 28.2708 11.4417C28.3315 11.4053 28.3485 11.3945 28.3461 11.3945C28.2212 11.5697 28.0975 11.7435 27.9774 11.9159C27.7118 12.1086 26.7913 12.7944 26.8483 13.1353C27.1284 13.0289 27.3771 12.75 27.6027 12.4563C27.3201 12.8632 27.0837 13.2 26.9393 13.3697C26.1001 14.3587 25.3579 15.2897 24.555 16.1952C23.6308 17.2381 18.6342 22.389 18.8161 23.3741C18.8222 23.405 19.807 22.4821 19.7767 22.3865C19.8301 22.497 19.1303 23.335 19.0951 23.5857C20.8136 23.2502 23.6128 18.3929 24.8449 16.9782C26.9491 14.5638 29.1261 12.02 31.251 9.63904C31.2716 9.92739 29.8818 11.6776 29.9035 11.683C30.1206 11.7235 30.5402 10.884 30.6894 10.6576C30.784 10.628 30.5972 11.1103 30.4857 11.2949C31.1248 10.9729 31.5736 9.90175 32.0817 9.4962C31.3068 12.288 27.6938 15.05 26.0226 17.269C24.2532 19.6201 22.5408 21.9458 20.8186 24.1622C19.3099 26.1065 17.777 28.1773 16.2441 30.2106C15.3745 31.364 14.3509 32.5697 13.5456 33.7381C12.9878 34.5465 10.9431 36.7468 10.9418 37.7547C12.1595 37.1902 13.4086 36.5488 14.6687 36.1622C16.4333 35.6191 22.1541 34.1142 23.632 36.0099C23.678 36.0692 23.0741 35.9304 22.4884 35.82C23.5738 36.2066 25.0897 37.0716 25.0547 37.0002C26.214 38.3408 27.6862 38.9135 28.454 40.7891C29.0374 42.2133 29.2763 43.977 29.0992 45.5305C28.9077 47.2067 27.958 49.0001 27.0775 50.3621C25.9823 52.0584 24.601 53.5217 23.0245 54.6602C22.594 54.9714 18.7446 56.9494 18.7495 56.843C18.8113 56.5695 20.2447 56.3283 19.8615 55.7746C19.6421 55.4567 18.5687 56.195 18.2133 56.2988C17.0042 56.6491 15.6314 56.9213 14.3992 57.1099C10.214 57.7512 4.63244 56.6356 1.71271 52.5774C-0.578242 49.3935 -0.292076 45.4552 0.947509 41.9302C1.19736 41.2188 3.93828 34.5776 4.55786 34.9198C3.95027 35.3564 3.76957 35.8171 4.01578 36.3036C4.68163 36.0907 6.62085 32.1241 7.0648 31.3817C7.91735 29.9547 8.4376 29.0911 9.38604 27.8043C10.2786 26.5931 11.2962 25.3521 12.2845 24.1287C12.6847 23.6328 15.5383 18.9804 16.3375 19.1597C16.1398 20.3803 13.804 22.4351 13.0436 23.4199C12.0988 24.6446 11.1905 26.0823 10.2712 27.3408C7.42237 31.2428 4.5214 35.7026 2.53987 40.2028C1.59392 42.3506 0.467284 45.2892 0.850498 47.7535C1.13062 49.559 3.36216 54.4486 5.60948 54.2587C3.39985 51.9615 1.23981 50.0455 1.41327 46.2729C1.51639 44.0147 2.58239 41.8373 3.51615 39.8837C7.2053 32.1633 12.4557 25.0897 17.8753 18.7828C18.9413 17.5419 30.093 4.13381 30.6145 4.65948C30.4011 5.79264 27.773 7.79887 27.0175 8.6625C26.0497 9.76737 24.9619 11.0474 23.9771 12.2182C22.0172 14.5478 20.0429 16.8787 18.1013 19.2083C16.1947 21.4961 14.2956 23.8648 12.4533 26.2013C10.4208 28.7816 7.31602 32.1445 6.44399 35.3877C8.66462 33.7034 9.26617 29.0348 11.7245 27.5567C11.75 27.7548 11.3667 27.9461 11.4613 28.1307C11.3825 27.9542 15.9801 22.4395 16.578 21.7011C21.7736 15.2809 27.4772 9.27415 32.946 2.80987C32.4911 3.53881 31.9684 4.63424 31.7295 4.94139C31.2105 5.60701 28.6284 7.80733 28.7546 8.61166C29.19 8.46344 28.301 9.27189 28.2719 9.43486C28.9207 9.39174 36.2485 0.105836 36.2752 0.171544C36.3589 0.345352 35.6785 1.00556 35.6348 1.22793L35.6336 1.22763ZM3.90822 39.954C3.64867 40.2329 3.81123 40.4027 3.90822 39.954V39.954ZM4.91007 38.2208C5.10898 38.1683 5.28487 37.3382 5.24485 37.411C5.26303 37.3679 4.85794 38.2342 4.91007 38.2208ZM5.41334 37.0989C5.19992 37.3226 5.5807 36.9318 5.41334 37.0989V37.0989ZM3.60637 36.8024C3.53114 36.9938 3.82226 36.2716 3.60637 36.8024V36.8024ZM3.07407 37.6871C2.83633 38.2853 3.62101 37.4433 3.44033 37.2034C3.32389 37.0808 3.1359 37.6332 3.07407 37.6871ZM2.36577 39.0469C2.3233 39.2814 2.20328 39.3716 2.24934 39.6317C2.43002 39.4808 2.93574 38.4636 2.86785 38.2681C2.89455 38.353 2.43368 38.9351 2.36577 39.0469L2.36577 39.0469ZM28.4857 43.3773C28.3972 43.5727 28.5063 44.0065 28.6178 44.21C28.5609 44.0146 28.5694 43.9822 28.6421 44.1129C28.6143 43.9553 28.4227 43.5148 28.4857 43.3773L28.4857 43.3773ZM10.7445 29.2159C10.7251 29.1566 9.5305 30.8785 9.59116 30.7801C9.61666 30.741 10.8937 29.6577 10.7445 29.2159ZM6.7652 54.8475C6.75308 55.2934 8.78693 55.5009 9.06102 55.5481C9.2369 55.3056 6.96896 54.799 6.7652 54.8475ZM10.7654 55.684C10.9049 55.5588 10.0184 55.6706 9.99291 55.6935C10.0499 55.6396 10.5641 55.87 10.7654 55.684ZM14.3393 55.6895C14.5067 55.4914 13.7087 55.2394 13.6262 55.6423C13.9597 55.8094 14.0083 55.6302 14.3393 55.6895ZM16.7419 55.2826C17.0038 55.0899 16.0566 54.8285 16.133 55.2179C16.1585 55.3634 16.6315 55.2475 16.7419 55.2826ZM17.6774 48.1588C17.6956 48.307 16.3967 48.1521 16.9364 48.6654C17.1184 48.8366 17.7272 48.4188 17.6774 48.1588ZM18.1516 54.7341C18.5991 54.5441 17.225 54.6627 17.1281 55.0049C17.0614 55.1895 18.0462 54.85 18.1516 54.7341ZM18.1174 48.0482C18.7577 48.2571 17.9529 47.3156 18.6684 47.4112C19.5937 47.1215 21.3728 45.2364 21.072 44.5385C21.0308 44.4414 20.9495 44.3741 20.8647 44.3094C21.1303 44.4307 21.3146 44.5358 21.3619 44.6004C21.6857 44.4576 21.0574 43.788 20.8561 43.8163C21.488 43.9349 19.1704 43.4593 18.5542 43.4445C17.145 43.4108 15.3925 43.974 14.0282 44.513C13.2266 44.8296 12.3194 45.5599 11.4352 45.8158C10.3474 46.1311 9.84889 45.8172 8.90892 46.5622C9.28005 45.7875 11.0033 45.4668 11.1889 44.6328C10.4491 44.5614 9.18787 45.3927 8.49779 45.8979C8.46384 45.9127 8.43834 45.9316 8.41045 45.9491C8.45293 45.9086 8.48322 45.8898 8.49779 45.8979C8.48082 45.8857 9.06172 45.3953 9.08475 45.2363C8.83252 45.1676 7.70827 45.9733 7.52275 46.112C7.46577 46.1471 7.08977 45.7348 6.99757 45.7374C6.59736 48.133 7.93624 48.9239 10.0161 49.0641C10.4527 49.0938 15.767 50.2229 16.5044 48.6114C16.4679 48.6195 16.1247 48.6774 15.8082 48.7313C16.6717 48.4174 18.247 47.6211 18.2701 47.6951C18.1185 47.7396 18.0676 47.8568 18.1173 48.0481L18.1174 48.0482ZM21.4064 43.919C21.4925 43.9271 21.199 43.8799 21.4064 43.919V43.919ZM21.5759 44.5336C21.5322 44.4554 21.2412 44.8138 21.3843 44.9486C21.5698 45.1359 21.5528 44.5915 21.5759 44.5336ZM21.5759 43.935C21.6123 43.9364 21.4546 43.9229 21.5759 43.935V43.935ZM20.9953 45.6034C21.1893 45.5603 21.5034 45.3353 21.3955 45.0833C21.3045 44.8569 20.9443 45.408 20.9953 45.6034ZM18.6529 47.6275C18.8009 47.68 18.5486 47.5857 18.6529 47.6275V47.6275ZM19.1794 54.5055C19.4426 54.3775 19.5166 54.2293 19.4027 54.0622C18.8909 54.1094 19.1382 54.5675 19.1794 54.5055ZM18.9288 47.4913C19.1689 47.7608 20.093 47.1828 20.1379 46.7678C20.1997 46.7085 20.9323 46.3515 20.5624 46.0672C20.5382 46.047 18.8973 47.4536 18.9289 47.4914L18.9288 47.4913ZM20.7031 53.5988C20.5843 53.5637 20.4727 53.712 20.7031 53.5988V53.5988ZM21.4424 55.0189C21.9275 54.604 20.7269 55.2439 20.5365 55.4608C20.7488 55.5282 21.1757 55.0391 21.4424 55.0189ZM23.8064 53.3253C24.1715 53.1152 23.4996 53.4008 23.8064 53.3253V53.3253ZM23.8389 51.4484C24.2366 50.446 23.013 51.8971 22.8929 51.9725C22.3726 52.3067 21.4182 52.9049 21.0046 53.4115C21.8729 53.4345 23.2519 52.0521 23.8388 51.4484H23.8389ZM22.0429 43.9478C22.0296 43.9492 22.0173 43.9505 22.0101 43.9505C22.0137 43.9505 22.0186 43.9505 22.0392 43.9492C22.0478 43.9478 22.0441 43.9478 22.0429 43.9478V43.9478ZM21.9041 44.1554C21.8713 44.1837 22.126 43.9842 21.9041 44.1554V44.1554ZM21.6642 44.3774C21.8462 44.1968 21.8292 44.2089 21.6642 44.3774V44.3774ZM24.4357 50.6062C24.4164 50.4796 24.4479 50.9242 24.4357 50.6062V50.6062ZM26.2389 50.3448C26.4621 50.5793 26.6222 50.4419 26.718 49.9326C26.8502 49.7116 26.2984 50.2317 26.2389 50.3448ZM26.6645 47.3791C26.7942 47.1703 26.8077 46.9331 26.7082 46.6704C26.4863 46.8928 26.3989 47.6068 26.2619 47.8911C26.3916 47.7416 26.5517 47.5502 26.6645 47.3791L26.6645 47.3791ZM26.3796 40.8956C26.6113 41.4777 26.4087 40.87 26.3796 40.8956V40.8956ZM26.376 40.9012C26.3396 40.9686 26.5082 41.2623 26.376 40.9012V40.9012ZM26.9205 49.5822C27.2213 49.2332 26.6586 49.7897 26.9205 49.5822V49.5822ZM26.9566 46.4688C27.0791 46.2896 27.1288 46.1347 26.993 46.035C26.7771 46.3126 26.765 46.4567 26.9566 46.4688ZM27.1279 44.6738C27.2916 44.523 27.3449 44.3288 27.2867 44.0944C27.3656 43.8168 27.425 42.9424 27.2031 42.7363C27.4299 42.9694 26.8223 44.434 27.1279 44.6739V44.6738ZM27.8185 47.2966C27.7639 47.4717 27.742 47.651 27.7518 47.8369C27.9616 47.8935 28.2029 47.1431 28.1617 46.9638C27.9943 46.8735 27.8804 46.9853 27.8185 47.2965L27.8185 47.2966ZM27.6562 48.1756C27.6623 47.6987 27.0887 48.9302 27.5471 48.6176C27.6453 48.472 27.6538 48.3562 27.6562 48.1756ZM27.5607 40.3443C27.5182 39.6235 26.2909 38.6359 25.9453 38.3543C25.9841 38.3866 27.5365 40.1018 27.5607 40.3443ZM26.1055 48.1043C25.9879 48.1946 25.9272 48.3024 25.9224 48.4439C26.0388 48.3603 26.1031 48.2485 26.1055 48.1043ZM25.2652 49.2726C24.9705 49.4774 24.7886 49.7469 24.7219 50.0784C24.9075 50.5419 25.9395 48.8631 25.2652 49.2726ZM25.0416 39.458C25.0816 39.2021 24.6353 38.8827 24.4231 38.8773C24.4692 39.2088 24.6753 39.4014 25.0416 39.458ZM24.2879 50.6978C23.9107 50.6749 23.9592 51.0739 24.2878 50.698C24.2878 50.6993 24.2854 50.702 24.2878 50.6979C24.2951 50.6912 24.3096 50.6736 24.3412 50.6372C24.3388 50.6399 24.2903 50.6951 24.2879 50.6978V50.6978ZM23.9633 38.7697C24.2143 38.7602 23.4431 38.0717 23.3873 38.4234C23.3387 38.7279 23.762 38.7818 23.9633 38.7697ZM22.4685 36.5941C22.3363 36.5604 23.6788 37.0441 23.663 37.0239C23.3501 36.7072 22.9523 36.5631 22.4685 36.5941ZM19.8142 35.6485C19.6396 35.6472 20.8923 35.821 20.8147 35.7415C20.5152 35.565 20.1816 35.534 19.8142 35.6485ZM20.6454 36.3276C20.6078 36.3573 20.1057 36.135 19.9772 36.2509C20.0014 36.2279 20.5242 36.4193 20.6454 36.3276ZM18.8927 35.6505C18.6417 35.7381 19.6082 35.7584 19.4978 35.6735C19.3123 35.5764 19.1098 35.5684 18.8927 35.6505ZM19.7366 36.2455C19.129 35.9289 19.722 36.5675 19.7366 36.2455V36.2455ZM18.6042 36.2455C18.2841 36.2199 17.9723 36.2576 17.6692 36.356C17.9457 36.4126 19.3549 36.5339 18.6042 36.2455ZM17.0354 36.4138C16.8123 36.4838 17.4041 36.4731 17.5048 36.4879C17.4211 36.2818 17.2658 36.2521 17.0354 36.4138ZM16.6488 36.6241C16.3772 36.453 16.0788 36.4948 15.7538 36.7481C15.7113 36.7576 16.5385 36.8276 16.6488 36.6241ZM21.868 37.7336C21.1089 36.2784 14.4302 38.3115 13.6116 38.9474C11.2854 39.384 9.66401 39.764 8.44397 42.2391C9.34744 41.5694 10.1709 40.9698 10.8902 40.2382C11.0006 40.4606 14.8619 38.5904 15.9497 38.3371C16.5125 38.2064 21.6037 37.1918 21.868 37.7335V37.7336ZM11.5624 37.8922C11.1658 38.446 10.5072 38.4015 10.1483 39.0765C10.1374 39.0819 13.3075 37.6901 13.3319 37.6187C13.3853 37.3896 11.4728 37.9811 11.5625 37.8922H11.5624ZM10.9969 28.8773C11.1436 28.7022 11.288 28.6011 11.4226 28.4017C11.3947 27.9328 10.832 29.0835 10.9969 28.8773ZM28.8319 12.8969C28.2898 13.6231 29.5778 12.1735 29.7779 11.8299C29.3995 11.912 29.0817 12.5979 28.8319 12.8969ZM28.565 13.4338C28.5032 13.2398 26.9424 15.0736 26.9921 15.0116C27.0612 14.9334 28.673 13.8704 28.565 13.4338ZM26.5996 15.5032C26.5243 15.7457 26.7233 15.1947 26.5996 15.5032V15.5032ZM26.3309 15.7416C26.1854 15.9114 26.0398 16.0812 25.8955 16.2496C26.0556 16.1849 26.2958 15.9316 26.3309 15.7416ZM17.4718 25.1051C17.5834 25.0579 17.644 24.9744 17.6526 24.8531C17.5422 24.8989 17.4827 24.9838 17.4718 25.1051ZM17.8866 24.5762C18.1413 24.3849 17.6792 24.7015 17.8866 24.5762V24.5762ZM26.1524 12.1557C25.9146 12.2487 25.54 12.5222 25.4963 12.8227C25.7704 12.696 26.0226 12.4683 26.1524 12.1557ZM25.8675 14.3173C25.8651 14.3051 26.5273 13.5923 26.6182 13.4792C26.5975 13.5048 25.7959 13.8995 25.8675 14.3173ZM26.7204 11.5186C26.8671 10.8517 27.8508 10.5432 27.9636 9.81294C27.9987 9.80081 26.0073 11.8447 26.2256 12.0092C26.3481 12.0913 26.6791 11.5659 26.7203 11.5187L26.7204 11.5186ZM28.3451 11.3964C28.3451 11.3964 28.3463 11.3951 28.3451 11.3964V11.3964ZM15.8086 48.7326C15.5138 48.839 15.3005 48.8916 15.2617 48.8323C15.258 48.8283 15.5224 48.7811 15.8086 48.7326V48.7326ZM7.52542 46.113C7.4745 46.1507 7.48781 46.1399 7.52422 46.113C7.52422 46.1117 7.52542 46.113 7.52542 46.113ZM8.00435 46.3414C8.15839 46.2107 8.23469 46.0598 8.41295 45.9494C8.1098 46.239 7.20986 47.5877 7.11292 47.4679C7.36643 46.8993 7.5035 46.6419 8.00435 46.3414V46.3414ZM14.4208 57.8421C14.6052 57.9526 16.9954 57.256 17.021 57.2493C16.747 57.3261 14.9387 58.1762 14.4208 57.8421ZM31.5728 9.25289C31.5679 8.93495 32.2544 8.27736 32.4157 8.08881C32.5212 7.96352 31.5765 9.33246 31.5728 9.25289ZM23.9236 36.0211C24.068 35.9686 24.2207 36.001 24.3784 36.0643C24.2159 36.0023 24.0594 35.97 23.9236 36.0211ZM26.3976 37.5056C25.7949 37.4395 25.0466 36.3387 24.3795 36.0666C25.0853 36.3361 25.9707 37.4423 26.3976 37.5056ZM10.8455 57.8004C10.8733 57.8017 9.57695 58.1197 9.32227 57.7505C9.3465 57.7802 10.8734 57.8004 10.8455 57.8004ZM9.28606 27.6353C9.31029 27.6002 8.83611 28.3386 8.81793 28.2672C8.80462 28.0691 9.69969 27.0263 9.68995 26.9723C9.70813 27.1192 9.33579 27.5517 9.28608 27.6353L9.28606 27.6353ZM17.259 44.4911C17.2069 43.9131 17.2809 44.5033 17.259 44.4911V44.4911ZM33.6086 2.79622C33.6122 2.99695 32.9222 3.45379 33.0107 3.36348C32.9792 3.39447 33.6098 2.73292 33.6086 2.79622ZM11.1693 57.9353C11.2142 57.8571 11.4834 57.895 11.5683 57.8101C11.8121 57.744 11.8848 57.806 11.7866 58C11.8133 57.9987 11.1329 57.9825 11.1693 57.9353L11.1693 57.9353ZM13.1031 25.8343C13.1212 25.9906 12.6568 26.4015 12.6629 26.4312C12.6204 26.2991 13.1007 25.8248 13.1031 25.8343ZM11.4073 39.9268C11.3285 40.0939 10.818 40.2137 10.9029 40.1504C11.0557 39.9726 11.223 39.8985 11.4073 39.9268ZM8.55108 48.1877C9.22051 48.4666 8.47345 48.1567 8.55108 48.1877V48.1877ZM5.20652 33.7935C5.28414 33.7787 4.97732 34.3419 4.99062 34.3068C4.92631 34.4065 5.01852 33.842 5.20652 33.7935ZM16.6806 18.8968C16.6066 18.9965 16.6187 18.9682 16.6575 18.8995C16.666 18.8982 16.6697 18.8995 16.6806 18.8968ZM16.6575 18.8988C16.3579 18.9582 16.7994 18.5929 16.7994 18.5916C16.94 18.4326 16.7375 18.7587 16.6575 18.8988ZM11.8971 27.3668C11.9541 27.3049 12.1009 26.9612 12.2088 26.9504C12.3265 26.9357 11.811 27.639 11.8971 27.3668ZM14.216 48.9217C14.296 48.923 14.5362 48.8004 14.6162 48.8692C14.7132 48.9581 14.0231 49.0523 14.216 48.9217ZM14.8067 48.7911C15.3706 48.8355 14.78 48.8126 14.8067 48.7911V48.7911ZM19.9674 45.4471C19.7079 45.497 20.3701 44.985 19.9674 45.4471V45.4471ZM6.63681 57.022C7.15101 57.1944 6.14079 56.8576 6.63681 57.022V57.022ZM12.9552 57.8991C13.0607 57.8209 13.182 57.8088 13.3118 57.8614C13.2062 57.9422 13.0838 57.9543 12.9552 57.8991ZM13.7212 57.7872C14.1711 57.7307 13.3767 58.0217 13.7212 57.7872V57.7872ZM19.5852 46.3574C19.7744 46.4289 19.3499 46.2712 19.5852 46.3574V46.3574ZM20.9087 43.915C20.9596 43.9608 20.9498 43.9944 20.888 43.9985C20.8359 43.946 20.8444 43.9191 20.9087 43.915ZM12.1495 49.0306C12.437 48.3812 12.2975 49.7259 12.1495 49.0306V49.0306ZM9.83928 48.6644C9.9157 48.6051 9.9836 48.6133 10.0466 48.6887C9.97268 48.748 9.90112 48.7385 9.83928 48.6644ZM31.1328 10.3387C31.1134 10.46 31.0467 10.5368 30.9327 10.5732C30.9509 10.4519 31.0188 10.3737 31.1328 10.3387ZM23.3791 11.5407C23.2893 11.7199 23.4725 11.309 23.3791 11.5407V11.5407ZM13.0374 35.1878C12.7512 35.1972 13.2521 35.1541 13.0374 35.1878V35.1878ZM8.72995 57.6472C8.99796 57.6997 8.83913 57.7644 8.72995 57.6472V57.6472ZM7.97189 57.5166C8.08953 57.4424 8.25808 57.5691 7.97189 57.5166V57.5166ZM4.59181 34.9394C4.56152 34.9474 4.84651 34.8491 4.59181 34.9394V34.9394ZM25.175 11.0759C25.1714 10.8765 25.1787 11.1446 25.175 11.0759V11.0759ZM27.7212 8.62786C27.5671 8.96466 27.7745 8.3395 27.7212 8.62786V8.62786ZM34.0467 1.56218C33.9498 1.73192 34.1499 1.34526 34.0467 1.56218V1.56218ZM12.9516 49.0691C12.9831 49.0031 13.1371 49.0368 12.9516 49.0691V49.0691ZM57.4828 44.0368C57.4598 44.0017 57.4294 43.8535 57.4828 44.0368V44.0368ZM45.8548 43.8437C46.1519 43.1673 48.0413 43.6376 49.2505 44.0983C48.2487 43.9124 46.5436 44.2735 45.8548 43.8437ZM61.8375 2.80824C62.0619 2.44983 62.2704 2.17359 62.4159 2.13589C62.2255 2.36361 62.0291 2.58187 61.8375 2.80824ZM49.7616 44.31C49.6136 44.2427 49.4413 44.1713 49.251 44.0985C49.462 44.1376 49.6293 44.2103 49.7616 44.31ZM58.9993 9.45723C58.9642 9.45856 58.3261 10.0474 58.2097 10.1525C58.2134 10.1363 58.2292 10.1121 58.2377 10.0919C58.553 9.72541 58.8283 9.46802 58.9993 9.45722L58.9993 9.45723ZM56.9455 11.8652C56.8084 12.0323 56.6567 12.2492 56.4942 12.4594C56.6131 12.2897 56.7392 12.1064 56.8702 11.9191C56.9139 11.8881 56.9455 11.8652 56.9455 11.8652V11.8652ZM64.5279 1.22763C65.1379 1.09022 65.424 0.206101 66 0C65.2626 0.266761 63.6472 3.37117 63.0082 4.08115C62.5085 4.63628 59.2618 8.29972 59.5287 8.86025C59.6633 8.78747 60.3801 7.96965 60.3947 7.99658C60.4686 8.14612 59.359 9.32509 59.1989 9.37085C59.2765 8.98012 58.3948 9.73732 58.2384 10.0916C57.9291 10.4501 57.5823 10.9148 57.2403 11.3946C57.2209 11.4027 57.0124 11.5225 57.1652 11.4417C57.2258 11.4053 57.2428 11.3945 57.2404 11.3945C57.1155 11.5697 56.9918 11.7435 56.8717 11.9159C56.6061 12.1086 55.6857 12.7944 55.7426 13.1353C56.0228 13.0289 56.2714 12.75 56.497 12.4563C56.2144 12.8632 55.978 13.2 55.8337 13.3697C54.9944 14.3587 54.2522 15.2897 53.4493 16.1952C52.5251 17.2381 47.5285 22.389 47.7105 23.3741C47.7165 23.405 48.7013 22.4821 48.671 22.3865C48.7244 22.497 48.0246 23.335 47.9894 23.5857C49.7079 23.2502 52.5071 18.3929 53.7393 16.9782C55.8434 14.5638 58.0204 12.02 60.1453 9.63904C60.1659 9.92739 58.7761 11.6776 58.7979 11.683C59.0149 11.7235 59.4345 10.884 59.5838 10.6576C59.6784 10.628 59.4916 11.1103 59.38 11.2949C60.0191 10.9729 60.4679 9.90175 60.976 9.4962C60.2011 12.288 56.5881 15.05 54.9169 17.269C53.1475 19.6201 51.4352 21.9458 49.7129 24.1622C48.2042 26.1065 46.6713 28.1773 45.1384 30.2106C44.2689 31.364 43.2453 32.5697 42.44 33.7381C41.8821 34.5465 39.8374 36.7468 39.8361 37.7547C41.0538 37.1902 42.3029 36.5488 43.563 36.1622C45.3276 35.6191 51.0484 34.1142 52.5263 36.0099C52.5723 36.0692 51.9684 35.9304 51.3827 35.82C52.4681 36.2066 53.984 37.0716 53.949 37.0002C55.1084 38.3408 56.5806 38.9135 57.3484 40.7891C57.9317 42.2133 58.1706 43.977 57.9936 45.5305C57.802 47.2067 56.8524 49.0001 55.9718 50.3621C54.8766 52.0584 53.4953 53.5217 51.9188 54.6602C51.4883 54.9714 47.6389 56.9494 47.6438 56.843C47.7056 56.5695 49.1391 56.3283 48.7559 55.7746C48.5364 55.4567 47.463 56.195 47.1077 56.2988C45.8985 56.6491 44.5257 56.9213 43.2936 57.1099C39.1084 57.7512 33.5268 56.6356 30.607 52.5774C28.3161 49.3935 28.6022 45.4552 29.8418 41.9302C30.0917 41.2188 32.8326 34.5776 33.4522 34.9198C32.8446 35.3564 32.6639 35.8171 32.9101 36.3036C33.576 36.0907 35.5152 32.1241 35.9591 31.3817C36.8117 29.9547 37.3319 29.0911 38.2804 27.8043C39.1729 26.5931 40.1905 25.3521 41.1788 24.1287C41.579 23.6328 44.4327 18.9804 45.2318 19.1597C45.0341 20.3803 42.6984 22.4351 41.938 23.4199C40.9932 24.6446 40.0848 26.0823 39.1656 27.3408C36.3167 31.2428 33.4157 35.7026 31.4342 40.2028C30.4882 42.3506 29.3616 45.2892 29.7448 47.7535C30.0249 49.559 32.2565 54.4486 34.5038 54.2587C32.2942 51.9615 30.1341 50.0455 30.3076 46.2729C30.4107 44.0147 31.4767 41.8373 32.4105 39.8837C36.0996 32.1633 41.35 25.0897 46.7696 18.7828C47.8356 17.5419 58.9873 4.13381 59.5088 4.65948C59.2954 5.79264 56.6674 7.79887 55.9118 8.6625C54.944 9.76737 53.8562 11.0474 52.8715 12.2182C50.9116 14.5478 48.9373 16.8787 46.9956 19.2083C45.0891 21.4961 43.19 23.8648 41.3476 26.2013C39.3151 28.7816 36.2103 32.1445 35.3383 35.3877C37.5589 33.7034 38.1605 29.0348 40.6188 27.5567C40.6443 27.7548 40.261 27.9461 40.3556 28.1307C40.2768 27.9542 44.8744 22.4395 45.4724 21.7011C50.6679 15.2809 56.3716 9.27415 61.8403 2.80987C61.3855 3.53881 60.8627 4.63424 60.6238 4.94139C60.1048 5.60701 57.5227 7.80733 57.6489 8.61166C58.0843 8.46344 57.1953 9.27189 57.1662 9.43486C57.815 9.39174 65.1428 0.105836 65.1695 0.171544C65.2532 0.345352 64.5728 1.00556 64.5292 1.22793L64.5279 1.22763ZM32.8025 39.954C32.543 40.2329 32.7056 40.4027 32.8025 39.954V39.954ZM33.8044 38.2208C34.0033 38.1683 34.1792 37.3382 34.1392 37.411C34.1574 37.3679 33.7523 38.2342 33.8044 38.2208ZM34.3077 37.0989C34.0942 37.3226 34.475 36.9318 34.3077 37.0989V37.0989ZM32.5007 36.8024C32.4255 36.9938 32.7166 36.2716 32.5007 36.8024V36.8024ZM31.9684 37.6871C31.7307 38.2853 32.5153 37.4433 32.3347 37.2034C32.2182 37.0808 32.0302 37.6332 31.9684 37.6871ZM31.2601 39.0469C31.2176 39.2814 31.0976 39.3716 31.1437 39.6317C31.3243 39.4808 31.8301 38.4636 31.7622 38.2681C31.7889 38.353 31.328 38.9351 31.2601 39.0469L31.2601 39.0469ZM57.38 43.3773C57.2915 43.5727 57.4006 44.0065 57.5122 44.21C57.4552 44.0146 57.4637 43.9822 57.5365 44.1129C57.5086 43.9553 57.317 43.5148 57.38 43.3773L57.38 43.3773ZM39.6388 29.2159C39.6194 29.1566 38.4248 30.8785 38.4855 30.7801C38.511 30.741 39.788 29.6577 39.6388 29.2159ZM35.6595 54.8475C35.6474 55.2934 37.6813 55.5009 37.9553 55.5481C38.1312 55.3056 35.8633 54.799 35.6595 54.8475ZM39.6597 55.684C39.7992 55.5588 38.9128 55.6706 38.8872 55.6935C38.9442 55.6396 39.4584 55.87 39.6597 55.684ZM43.2336 55.6895C43.401 55.4914 42.603 55.2394 42.5205 55.6423C42.8541 55.8094 42.9026 55.6302 43.2336 55.6895ZM45.6362 55.2826C45.8982 55.0899 44.9509 54.8285 45.0273 55.2179C45.0528 55.3634 45.5258 55.2475 45.6362 55.2826ZM46.5717 48.1588C46.5899 48.307 45.291 48.1521 45.8307 48.6654C46.0127 48.8366 46.6215 48.4188 46.5717 48.1588ZM47.0459 54.7341C47.4934 54.5441 46.1193 54.6627 46.0224 55.0049C45.9557 55.1895 46.9405 54.85 47.0459 54.7341ZM47.0117 48.0482C47.652 48.2571 46.8472 47.3156 47.5627 47.4112C48.488 47.1215 50.2671 45.2364 49.9664 44.5385C49.9252 44.4414 49.8439 44.3741 49.759 44.3094C50.0246 44.4307 50.2089 44.5358 50.2562 44.6004C50.58 44.4576 49.9518 43.788 49.7505 43.8163C50.3823 43.9349 48.0647 43.4593 47.4485 43.4445C46.0393 43.4108 44.2868 43.974 42.9225 44.513C42.1209 44.8296 41.2137 45.5599 40.3295 45.8158C39.2417 46.1311 38.7432 45.8172 37.8032 46.5622C38.1744 45.7875 39.8976 45.4668 40.0832 44.6328C39.3434 44.5614 38.0822 45.3927 37.3921 45.8979C37.3582 45.9127 37.3327 45.9316 37.3048 45.9491C37.3473 45.9086 37.3775 45.8898 37.3921 45.8979C37.3751 45.8857 37.956 45.3953 37.9791 45.2363C37.7268 45.1676 36.6026 45.9733 36.4171 46.112C36.3601 46.1471 35.9841 45.7348 35.8919 45.7374C35.4917 48.133 36.8306 48.9239 38.9104 49.0641C39.347 49.0938 44.6614 50.2229 45.3987 48.6114C45.3623 48.6195 45.019 48.6774 44.7025 48.7313C45.566 48.4174 47.1413 47.6211 47.1644 47.6951C47.0128 47.7396 46.9619 47.8568 47.0116 48.0481L47.0117 48.0482ZM50.3007 43.919C50.3868 43.9271 50.0933 43.8799 50.3007 43.919V43.919ZM50.4702 44.5336C50.4265 44.4554 50.1355 44.8138 50.2786 44.9486C50.4641 45.1359 50.4472 44.5915 50.4702 44.5336ZM50.4702 43.935C50.5066 43.9364 50.3489 43.9229 50.4702 43.935V43.935ZM49.8896 45.6034C50.0836 45.5603 50.3977 45.3353 50.2898 45.0833C50.1989 44.8569 49.8386 45.408 49.8896 45.6034ZM47.5472 47.6275C47.6952 47.68 47.4429 47.5857 47.5472 47.6275V47.6275ZM48.0738 54.5055C48.3369 54.3775 48.4109 54.2293 48.297 54.0622C47.7852 54.1094 48.0326 54.5675 48.0738 54.5055ZM47.8231 47.4913C48.0632 47.7608 48.9873 47.1828 49.0322 46.7678C49.094 46.7085 49.8266 46.3515 49.4567 46.0672C49.4325 46.047 47.7916 47.4536 47.8232 47.4914L47.8231 47.4913ZM49.5975 53.5988C49.4786 53.5637 49.3671 53.712 49.5975 53.5988V53.5988ZM50.3368 55.0189C50.8219 54.604 49.6212 55.2439 49.4308 55.4608C49.6431 55.5282 50.07 55.0391 50.3368 55.0189ZM52.7008 53.3253C53.0658 53.1152 52.3939 53.4008 52.7008 53.3253V53.3253ZM52.7332 51.4484C53.131 50.446 51.9073 51.8971 51.7872 51.9725C51.2669 52.3067 50.3125 52.9049 49.8989 53.4115C50.7672 53.4345 52.1462 52.0521 52.7331 51.4484H52.7332ZM50.9372 43.9478C50.9239 43.9492 50.9117 43.9505 50.9044 43.9505C50.9081 43.9505 50.9129 43.9505 50.9336 43.9492C50.9421 43.9478 50.9384 43.9478 50.9372 43.9478V43.9478ZM50.7984 44.1554C50.7656 44.1837 51.0203 43.9842 50.7984 44.1554V44.1554ZM50.5586 44.3774C50.7405 44.1968 50.7235 44.2089 50.5586 44.3774V44.3774ZM53.3301 50.6062C53.3107 50.4796 53.3422 50.9242 53.3301 50.6062V50.6062ZM55.1333 50.3448C55.3564 50.5793 55.5165 50.4419 55.6123 49.9326C55.7445 49.7116 55.1927 50.2317 55.1333 50.3448ZM55.5588 47.3791C55.6886 47.1703 55.702 46.9331 55.6026 46.6704C55.3806 46.8928 55.2933 47.6068 55.1562 47.8911C55.2859 47.7416 55.446 47.5502 55.5588 47.3791L55.5588 47.3791ZM55.2739 40.8956C55.5056 41.4777 55.303 40.87 55.2739 40.8956V40.8956ZM55.2703 40.9012C55.2339 40.9686 55.4025 41.2623 55.2703 40.9012V40.9012ZM55.8149 49.5822C56.1156 49.2332 55.5529 49.7897 55.8149 49.5822V49.5822ZM55.8509 46.4688C55.9734 46.2896 56.0231 46.1347 55.8873 46.035C55.6714 46.3126 55.6593 46.4567 55.8509 46.4688ZM56.0222 44.6738C56.1859 44.523 56.2392 44.3288 56.1811 44.0944C56.2599 43.8168 56.3193 42.9424 56.0974 42.7363C56.3242 42.9694 55.7166 44.434 56.0222 44.6739V44.6738ZM56.7129 47.2966C56.6583 47.4717 56.6364 47.651 56.6461 47.8369C56.8559 47.8935 57.0972 47.1431 57.056 46.9638C56.8887 46.8735 56.7747 46.9853 56.7128 47.2965L56.7129 47.2966ZM56.5506 48.1756C56.5566 47.6987 55.983 48.9302 56.4414 48.6176C56.5396 48.472 56.5482 48.3562 56.5506 48.1756ZM56.455 40.3443C56.4125 39.6235 55.1852 38.6359 54.8396 38.3543C54.8784 38.3866 56.4308 40.1018 56.455 40.3443ZM54.9998 48.1043C54.8822 48.1946 54.8215 48.3024 54.8167 48.4439C54.9331 48.3603 54.9974 48.2485 54.9998 48.1043ZM54.1595 49.2726C53.8648 49.4774 53.6829 49.7469 53.6162 50.0784C53.8018 50.5419 54.8338 48.8631 54.1595 49.2726ZM53.9359 39.458C53.9759 39.2021 53.5297 38.8827 53.3174 38.8773C53.3635 39.2088 53.5697 39.4014 53.9359 39.458ZM53.1822 50.6978C52.805 50.6749 52.8535 51.0739 53.1821 50.698C53.1821 50.6993 53.1797 50.702 53.1821 50.6979C53.1894 50.6912 53.204 50.6736 53.2355 50.6372C53.2331 50.6399 53.1846 50.6951 53.1822 50.6978V50.6978ZM52.8576 38.7697C53.1087 38.7602 52.3374 38.0717 52.2816 38.4234C52.2331 38.7279 52.6563 38.7818 52.8576 38.7697ZM51.3628 36.5941C51.2306 36.5604 52.5731 37.0441 52.5573 37.0239C52.2444 36.7072 51.8467 36.5631 51.3628 36.5941ZM48.7085 35.6485C48.5339 35.6472 49.7867 35.821 49.709 35.7415C49.4095 35.565 49.076 35.534 48.7085 35.6485ZM49.5398 36.3276C49.5021 36.3573 49.0001 36.135 48.8715 36.2509C48.8958 36.2279 49.4185 36.4193 49.5398 36.3276ZM47.7871 35.6505C47.536 35.7381 48.5026 35.7584 48.3922 35.6735C48.2066 35.5764 48.0041 35.5684 47.7871 35.6505ZM48.631 36.2455C48.0234 35.9289 48.6164 36.5675 48.631 36.2455V36.2455ZM47.4985 36.2455C47.1784 36.2199 46.8667 36.2576 46.5635 36.356C46.84 36.4126 48.2493 36.5339 47.4985 36.2455ZM45.9298 36.4138C45.7066 36.4838 46.2984 36.4731 46.3991 36.4879C46.3154 36.2818 46.1602 36.2521 45.9298 36.4138ZM45.5432 36.6241C45.2715 36.453 44.9731 36.4948 44.6481 36.7481C44.6057 36.7576 45.4328 36.8276 45.5432 36.6241ZM50.7623 37.7336C50.0032 36.2784 43.3245 38.3115 42.5059 38.9474C40.1798 39.384 38.5583 39.764 37.3383 42.2391C38.2418 41.5694 39.0652 40.9698 39.7845 40.2382C39.8949 40.4606 43.7562 38.5904 44.8441 38.3371C45.4068 38.2064 50.498 37.1918 50.7623 37.7335V37.7336ZM40.4567 37.8922C40.0602 38.446 39.4016 38.4015 39.0427 39.0765C39.0317 39.0819 42.2019 37.6901 42.2262 37.6187C42.2796 37.3896 40.3671 37.9811 40.4568 37.8922H40.4567ZM39.8912 28.8773C40.038 28.7022 40.1823 28.6011 40.3169 28.4017C40.289 27.9328 39.7263 29.0835 39.8912 28.8773ZM57.7262 12.8969C57.1842 13.6231 58.4721 12.1735 58.6722 11.8299C58.2938 11.912 57.9761 12.5979 57.7262 12.8969ZM57.4594 13.4338C57.3975 13.2398 55.8367 15.0736 55.8864 15.0116C55.9555 14.9334 57.5673 13.8704 57.4594 13.4338ZM55.4939 15.5032C55.4187 15.7457 55.6176 15.1947 55.4939 15.5032V15.5032ZM55.2252 15.7416C55.0797 15.9114 54.9342 16.0812 54.7899 16.2496C54.95 16.1849 55.1901 15.9316 55.2252 15.7416ZM46.3661 25.1051C46.4777 25.0579 46.5384 24.9744 46.5469 24.8531C46.4365 24.8989 46.3771 24.9838 46.3661 25.1051ZM46.7809 24.5762C47.0356 24.3849 46.5735 24.7015 46.7809 24.5762V24.5762ZM55.0467 12.1557C54.809 12.2487 54.4343 12.5222 54.3906 12.8227C54.6647 12.696 54.917 12.4683 55.0467 12.1557ZM54.7618 14.3173C54.7594 14.3051 55.4216 13.5923 55.5125 13.4792C55.4919 13.5048 54.6902 13.8995 54.7618 14.3173ZM55.6147 11.5186C55.7614 10.8517 56.7452 10.5432 56.8579 9.81294C56.893 9.80081 54.9016 11.8447 55.1199 12.0092C55.2424 12.0913 55.5735 11.5659 55.6147 11.5187L55.6147 11.5186ZM57.2394 11.3964C57.2394 11.3964 57.2406 11.3951 57.2394 11.3964V11.3964ZM44.7029 48.7326C44.4082 48.839 44.1948 48.8916 44.156 48.8323C44.1523 48.8283 44.4167 48.7811 44.7029 48.7326ZM36.4197 46.113C36.3688 46.1507 36.3821 46.1399 36.4186 46.113C36.4186 46.1117 36.4197 46.113 36.4197 46.113ZM36.8987 46.3414C37.0527 46.2107 37.129 46.0598 37.3073 45.9494C37.0041 46.239 36.1042 47.5877 36.0072 47.4679C36.2608 46.8993 36.3978 46.6419 36.8987 46.3414V46.3414ZM43.3151 57.8421C43.4995 57.9526 45.8897 57.256 45.9153 57.2493C45.6413 57.3261 43.833 58.1762 43.3151 57.8421ZM60.4671 9.25289C60.4622 8.93495 61.1487 8.27736 61.3101 8.08881C61.4156 7.96352 60.4708 9.33246 60.4671 9.25289ZM52.818 36.0211C52.9623 35.9686 53.1151 36.001 53.2727 36.0643C53.1102 36.0023 52.9538 35.97 52.818 36.0211ZM55.2919 37.5056C54.6892 37.4395 53.9409 36.3387 53.2738 36.0666C53.9796 36.3361 54.865 37.4423 55.2919 37.5056ZM39.7398 57.8004C39.7677 57.8017 38.4713 58.1197 38.2166 57.7505C38.2408 57.7802 39.7677 57.8004 39.7398 57.8004ZM38.1804 27.6353C38.2046 27.6002 37.7304 28.3386 37.7123 28.2672C37.6989 28.0691 38.594 27.0263 38.5843 26.9723C38.6025 27.1192 38.2301 27.5517 38.1804 27.6353L38.1804 27.6353ZM46.1534 44.4911C46.1012 43.9131 46.1752 44.5033 46.1534 44.4911V44.4911ZM62.5029 2.79622C62.5066 2.99695 61.8165 3.45379 61.905 3.36348C61.8735 3.39447 62.5041 2.73292 62.5029 2.79622ZM40.0636 57.9353C40.1085 57.8571 40.3777 57.895 40.4626 57.8101C40.7064 57.744 40.7791 57.806 40.6809 58C40.7076 57.9987 40.0272 57.9825 40.0637 57.9353L40.0636 57.9353ZM41.9974 25.8343C42.0155 25.9906 41.5512 26.4015 41.5572 26.4312C41.5147 26.2991 41.995 25.8248 41.9974 25.8343ZM40.3017 39.9268C40.2228 40.0939 39.7123 40.2137 39.7972 40.1504C39.95 39.9726 40.1173 39.8985 40.3017 39.9268ZM37.4454 48.1877C38.1148 48.4666 37.3678 48.1567 37.4454 48.1877V48.1877ZM34.1008 33.7935C34.1785 33.7787 33.8716 34.3419 33.8849 34.3068C33.8206 34.4065 33.9128 33.842 34.1008 33.7935ZM45.5749 18.8968C45.5009 18.9965 45.513 18.9682 45.5518 18.8995C45.5603 18.8982 45.564 18.8995 45.5749 18.8968ZM45.5518 18.8988C45.2523 18.9582 45.6937 18.5929 45.6937 18.5916C45.8343 18.4326 45.6318 18.7587 45.5518 18.8988ZM40.7914 27.3668C40.8484 27.3049 40.9953 26.9612 41.1032 26.9504C41.2208 26.9357 40.7053 27.639 40.7914 27.3668ZM43.1103 48.9217C43.1903 48.923 43.4305 48.8004 43.5105 48.8692C43.6075 48.9581 42.9174 49.0523 43.1103 48.9217ZM43.701 48.7911C44.265 48.8355 43.6743 48.8126 43.701 48.7911V48.7911ZM48.8618 45.4471C48.6022 45.497 49.2644 44.985 48.8618 45.4471V45.4471ZM35.5311 57.022C36.0453 57.1944 35.0351 56.8576 35.5311 57.022V57.022ZM41.8495 57.8991C41.955 57.8209 42.0763 57.8088 42.2061 57.8614C42.1006 57.9422 41.9781 57.9543 41.8495 57.8991ZM42.6155 57.7872C43.0655 57.7307 42.2711 58.0217 42.6155 57.7872V57.7872ZM48.4795 46.3574C48.6687 46.4289 48.2442 46.2712 48.4795 46.3574V46.3574ZM49.803 43.915C49.854 43.9608 49.8442 43.9944 49.7823 43.9985C49.7302 43.946 49.7387 43.9191 49.803 43.915ZM41.0438 49.0306C41.3313 48.3812 41.1918 49.7259 41.0438 49.0306V49.0306ZM38.7336 48.6644C38.81 48.6051 38.8779 48.6133 38.941 48.6887C38.867 48.748 38.7954 48.7385 38.7336 48.6644ZM60.0271 10.3387C60.0077 10.46 59.941 10.5368 59.8271 10.5732C59.8452 10.4519 59.9131 10.3737 60.0271 10.3387ZM52.2734 11.5407C52.1837 11.7199 52.3668 11.309 52.2734 11.5407V11.5407ZM41.9317 35.1878C41.6456 35.1972 42.1464 35.1541 41.9317 35.1878V35.1878ZM37.6243 57.6472C37.8923 57.6997 37.7335 57.7644 37.6243 57.6472V57.6472ZM36.8662 57.5166C36.9838 57.4424 37.1524 57.5691 36.8662 57.5166V57.5166ZM33.4861 34.9394C33.4558 34.9474 33.7408 34.8491 33.4861 34.9394V34.9394ZM54.0694 11.0759C54.0657 10.8765 54.073 11.1446 54.0694 11.0759V11.0759ZM56.6155 8.62786C56.4614 8.96466 56.6689 8.3395 56.6155 8.62786V8.62786ZM62.9411 1.56218C62.8441 1.73192 63.0442 1.34526 62.9411 1.56218V1.56218ZM41.8459 49.0691C41.8775 49.0031 42.0314 49.0368 41.8459 49.0691V49.0691Z" fill="#222222"/>
</svg>
